<svg width="21" height="19" viewBox="0 0 21 19" fill="none" xmlns="http://www.w3.org/2000/svg">
<path fill-rule="evenodd" clip-rule="evenodd" d="M0.75 9.50008C0.75 9.17684 0.878404 8.86685 1.10696 8.63829C1.33552 8.40973 1.64552 8.28133 1.96875 8.28133H16.0892L10.8559 3.05045C10.627 2.8216 10.4985 2.51122 10.4985 2.18758C10.4985 1.86393 10.627 1.55355 10.8559 1.3247C11.0847 1.09585 11.3951 0.967285 11.7188 0.967285C12.0424 0.967285 12.3528 1.09585 12.5816 1.3247L19.8941 8.6372C20.0076 8.75041 20.0977 8.8849 20.1591 9.03297C20.2206 9.18103 20.2522 9.33977 20.2522 9.50008C20.2522 9.66038 20.2206 9.81911 20.1591 9.96718C20.0977 10.1152 20.0076 10.2497 19.8941 10.363L12.5816 17.6755C12.3528 17.9043 12.0424 18.0329 11.7188 18.0329C11.3951 18.0329 11.0847 17.9043 10.8559 17.6755C10.627 17.4466 10.4985 17.1362 10.4985 16.8126C10.4985 16.4889 10.627 16.1785 10.8559 15.9497L16.0892 10.7188H1.96875C1.64552 10.7188 1.33552 10.5904 1.10696 10.3619C0.878404 10.1333 0.75 9.82331 0.75 9.50008Z" fill="white"/>
</svg>
