<svg width="22" height="11" viewBox="0 0 22 11" fill="none" xmlns="http://www.w3.org/2000/svg">
<path d="M20.9172 0.32049C20.7609 0.167851 20.5512 0.0823975 20.3327 0.0823975C20.1143 0.0823975 19.9045 0.167851 19.7482 0.32049L11 8.84824L2.25347 0.320491C2.0972 0.167851 1.88742 0.0823977 1.66897 0.0823977C1.45052 0.0823977 1.24074 0.167851 1.08447 0.320491C1.00827 0.394684 0.947702 0.483391 0.906347 0.581375C0.864992 0.67936 0.843687 0.784636 0.843687 0.89099C0.843687 0.997344 0.864992 1.10262 0.906347 1.20061C0.947702 1.29859 1.00827 1.3873 1.08447 1.46149L10.3892 10.53C10.5526 10.6893 10.7718 10.7784 11 10.7784C11.2282 10.7784 11.4473 10.6893 11.6107 10.53L20.9155 1.46149C20.9917 1.3873 21.0522 1.29859 21.0936 1.20061C21.1349 1.10262 21.1563 0.997344 21.1563 0.89099C21.1563 0.784636 21.1349 0.67936 21.0936 0.581375C21.0522 0.48339 20.9917 0.394683 20.9155 0.32049L20.9172 0.32049Z" fill="#699B2C"/>
</svg>
