<svg width="14" height="15" viewBox="0 0 14 15" fill="none" xmlns="http://www.w3.org/2000/svg">
<path d="M8.16883 1.83807C8.18377 1.81928 8.20238 1.80371 8.22353 1.79233C8.24467 1.78095 8.26791 1.77399 8.29182 1.77187C8.31574 1.76975 8.33984 1.77252 8.36266 1.78C8.38547 1.78749 8.40653 1.79953 8.42454 1.81541L9.07692 2.39057L7.02346 4.95828H8.38417L9.87592 3.09395L11.0461 4.12599C11.0807 4.15657 11.102 4.19945 11.1054 4.2455C11.1089 4.29154 11.0942 4.33711 11.0645 4.37249L10.5757 4.95828H11.9527C12.1233 4.70858 12.1967 4.40514 12.1592 4.10508C12.1216 3.80503 11.9756 3.52905 11.7487 3.32912L9.12792 1.01782C9.00148 0.906476 8.85368 0.82207 8.69353 0.769761C8.53338 0.717451 8.36425 0.698336 8.19647 0.713583C8.02869 0.72883 7.86577 0.778119 7.71768 0.858439C7.56958 0.93876 7.43942 1.04843 7.33512 1.18074L4.358 4.95828H5.71092L8.16883 1.83807ZM1.71875 4.60412C1.57785 4.60412 1.44273 4.66009 1.3431 4.75972C1.24347 4.85934 1.1875 4.99447 1.1875 5.13537C1.1875 5.27626 1.24347 5.41139 1.3431 5.51102C1.44273 5.61065 1.57785 5.66662 1.71875 5.66662H10.9271C11.5376 5.66662 12.1232 5.90916 12.5549 6.34088C12.9866 6.7726 13.2292 7.35815 13.2292 7.9687V12.5729C13.2292 13.1834 12.9866 13.769 12.5549 14.2007C12.1232 14.6324 11.5376 14.8749 10.9271 14.8749H2.42708C1.81653 14.8749 1.23099 14.6324 0.799264 14.2007C0.36754 13.769 0.125 13.1834 0.125 12.5729V5.13537C0.125 4.71268 0.292912 4.3073 0.591799 4.00841C0.890685 3.70953 1.29606 3.54162 1.71875 3.54162H4.77875L3.93442 4.60412H1.71875ZM8.97917 10.4479C8.97917 10.7411 9.21717 10.9791 9.51042 10.9791H10.9271C11.068 10.9791 11.2031 10.9231 11.3027 10.8235C11.4024 10.7239 11.4583 10.5888 11.4583 10.4479C11.4583 10.307 11.4024 10.1718 11.3027 10.0722C11.2031 9.97259 11.068 9.91662 10.9271 9.91662H9.51042C9.36952 9.91662 9.2344 9.97259 9.13477 10.0722C9.03514 10.1718 8.97917 10.307 8.97917 10.4479Z" fill="#699B2C"/>
</svg>
