<svg width="29" height="27" viewBox="0 0 29 27" fill="none" xmlns="http://www.w3.org/2000/svg">
<path d="M27.8066 18.6972H8.64984L9.6117 16.7381L25.5933 16.7091C26.1338 16.7091 26.597 16.3231 26.6935 15.7891L28.9067 3.40074C28.9646 3.07583 28.8778 2.74127 28.6655 2.48713C28.5605 2.36206 28.4296 2.26131 28.2819 2.19188C28.1341 2.12244 27.973 2.08598 27.8098 2.08502L7.47889 2.01746L7.30518 1.20037C7.1958 0.679229 6.72613 0.299633 6.19212 0.299633H1.222C0.920824 0.299633 0.631987 0.419273 0.419026 0.632234C0.206066 0.845194 0.0864258 1.13403 0.0864258 1.4352C0.0864258 1.73637 0.206066 2.02521 0.419026 2.23817C0.631987 2.45113 0.920824 2.57077 1.222 2.57077H5.27209L6.03128 6.18015L7.9003 15.2293L5.49405 19.1572C5.36909 19.3258 5.29383 19.5261 5.27677 19.7353C5.25972 19.9445 5.30155 20.1543 5.39755 20.341C5.59056 20.7238 5.97981 20.9651 6.41087 20.9651H8.43109C8.00041 21.5371 7.76778 22.2339 7.76841 22.9499C7.76841 24.7707 9.24819 26.2505 11.069 26.2505C12.8897 26.2505 14.3695 24.7707 14.3695 22.9499C14.3695 22.2325 14.1315 21.5345 13.7068 20.9651H18.8893C18.4586 21.5371 18.226 22.2339 18.2266 22.9499C18.2266 24.7707 19.7064 26.2505 21.5271 26.2505C23.3479 26.2505 24.8277 24.7707 24.8277 22.9499C24.8277 22.2325 24.5896 21.5345 24.165 20.9651H27.8098C28.4338 20.9651 28.9453 20.4568 28.9453 19.8295C28.9435 19.5286 28.8227 19.2407 28.6093 19.0286C28.396 18.8165 28.1074 18.6973 27.8066 18.6972ZM7.95178 4.25643L26.4748 4.31756L24.6604 14.4766L10.1103 14.5023L7.95178 4.25643ZM11.069 23.9665C10.5092 23.9665 10.0524 23.5096 10.0524 22.9499C10.0524 22.3902 10.5092 21.9334 11.069 21.9334C11.6287 21.9334 12.0855 22.3902 12.0855 22.9499C12.0855 23.2195 11.9784 23.4781 11.7878 23.6687C11.5971 23.8594 11.3386 23.9665 11.069 23.9665ZM21.5271 23.9665C20.9674 23.9665 20.5106 23.5096 20.5106 22.9499C20.5106 22.3902 20.9674 21.9334 21.5271 21.9334C22.0869 21.9334 22.5437 22.3902 22.5437 22.9499C22.5437 23.2195 22.4366 23.4781 22.2459 23.6687C22.0553 23.8594 21.7967 23.9665 21.5271 23.9665Z" fill="white"/>
</svg>
