<svg width="17" height="13" viewBox="0 0 17 13" fill="none" xmlns="http://www.w3.org/2000/svg">
<path d="M2.12565 0.833313C1.74993 0.833313 1.38959 0.982568 1.12392 1.24824C0.85824 1.51392 0.708984 1.87426 0.708984 2.24998V10.0416H2.12565C2.12565 10.6052 2.34953 11.1457 2.74805 11.5442C3.14656 11.9428 3.68707 12.1666 4.25065 12.1666C4.81424 12.1666 5.35474 11.9428 5.75325 11.5442C6.15177 11.1457 6.37565 10.6052 6.37565 10.0416H10.6257C10.6257 10.6052 10.8495 11.1457 11.248 11.5442C11.6466 11.9428 12.1871 12.1666 12.7507 12.1666C13.3142 12.1666 13.8547 11.9428 14.2533 11.5442C14.6518 11.1457 14.8757 10.6052 14.8757 10.0416H16.2923V6.49998L14.1673 3.66665H12.0423V0.833313M7.08398 2.24998V4.37498V7.91665V5.79165V4.37498M12.0423 4.72915H13.8132L15.2086 6.49998H12.0423M4.25065 8.97915C4.53244 8.97915 4.80269 9.09109 5.00195 9.29035C5.20121 9.4896 5.31315 9.75985 5.31315 10.0416C5.31315 10.3234 5.20121 10.5937 5.00195 10.7929C4.80269 10.9922 4.53244 11.1041 4.25065 11.1041C3.96886 11.1041 3.69861 10.9922 3.49935 10.7929C3.30009 10.5937 3.18815 10.3234 3.18815 10.0416C3.18815 9.75985 3.30009 9.4896 3.49935 9.29035C3.69861 9.09109 3.96886 8.97915 4.25065 8.97915ZM12.7507 8.97915C13.0324 8.97915 13.3027 9.09109 13.502 9.29035C13.7012 9.4896 13.8132 9.75985 13.8132 10.0416C13.8132 10.3234 13.7012 10.5937 13.502 10.7929C13.3027 10.9922 13.0324 11.1041 12.7507 11.1041C12.4689 11.1041 12.1986 10.9922 11.9994 10.7929C11.8001 10.5937 11.6882 10.3234 11.6882 10.0416C11.6882 9.75985 11.8001 9.4896 11.9994 9.29035C12.1986 9.09109 12.4689 8.97915 12.7507 8.97915Z" fill="#699B2C"/>
</svg>
