<svg width="16" height="14" viewBox="0 0 16 14" fill="none" xmlns="http://www.w3.org/2000/svg">
<path d="M2.98267 0.746094C2.31962 0.746094 1.68374 1.00949 1.2149 1.47833C0.746058 1.94717 0.482666 2.58305 0.482666 3.24609V3.49734L7.98267 7.53609L15.4827 3.49859V3.24609C15.4827 2.58305 15.2193 1.94717 14.7504 1.47833C14.2816 1.00949 13.6457 0.746094 12.9827 0.746094H2.98267ZM15.4827 4.91734L8.27892 8.79609C8.18786 8.84511 8.08607 8.87077 7.98267 8.87077C7.87926 8.87077 7.77747 8.84511 7.68642 8.79609L0.482666 4.91734V10.7461C0.482666 11.4091 0.746058 12.045 1.2149 12.5139C1.68374 12.9827 2.31962 13.2461 2.98267 13.2461H12.9827C13.6457 13.2461 14.2816 12.9827 14.7504 12.5139C15.2193 12.045 15.4827 11.4091 15.4827 10.7461V4.91734Z" fill="white"/>
</svg>
