<svg width="17" height="13" viewBox="0 0 17 13" fill="none" xmlns="http://www.w3.org/2000/svg">
<path d="M16.4996 1.44669C15.4692 1.01452 14.438 0.850098 13.4074 0.850098C10.1357 0.849832 6.86428 2.506 3.59258 2.506C2.77206 2.506 1.95208 2.40188 1.13156 2.14157C1.03939 2.11235 0.946953 2.09854 0.856641 2.09854C0.3995 2.09854 0 2.45235 0 2.94349V11.3707C0 11.7062 0.192047 12.0241 0.500437 12.1532C1.5308 12.5857 2.56195 12.7501 3.59258 12.7501C6.86428 12.7501 10.136 11.0939 13.4077 11.0939C14.2282 11.0939 15.0482 11.1981 15.8687 11.4584C15.9609 11.4876 16.0533 11.5014 16.1436 11.5014C16.6008 11.5014 17.0003 11.1476 17.0003 10.6564V2.22949C17 1.89374 16.808 1.57605 16.4996 1.44669ZM8.5 9.3501C7.3262 9.3501 6.375 8.20818 6.375 6.8001C6.375 5.39175 7.32647 4.2501 8.5 4.2501C9.67353 4.2501 10.625 5.39175 10.625 6.8001C10.625 8.20871 9.67327 9.3501 8.5 9.3501Z" fill="#699B2C"/>
</svg>
