<svg width="17" height="13" viewBox="0 0 17 13" fill="none" xmlns="http://www.w3.org/2000/svg">
<path d="M0 2.25C0 1.68641 0.223883 1.14591 0.622398 0.747398C1.02091 0.348883 1.56141 0.125 2.125 0.125H14.875C15.4386 0.125 15.9791 0.348883 16.3776 0.747398C16.7761 1.14591 17 1.68641 17 2.25V7.5625H0V2.25ZM12.2188 3.3125C12.0779 3.3125 11.9427 3.36847 11.8431 3.4681C11.7435 3.56773 11.6875 3.70285 11.6875 3.84375V4.90625C11.6875 5.04715 11.7435 5.18227 11.8431 5.2819C11.9427 5.38153 12.0779 5.4375 12.2188 5.4375H14.3438C14.4846 5.4375 14.6198 5.38153 14.7194 5.2819C14.819 5.18227 14.875 5.04715 14.875 4.90625V3.84375C14.875 3.70285 14.819 3.56773 14.7194 3.4681C14.6198 3.36847 14.4846 3.3125 14.3438 3.3125H12.2188ZM0 9.6875V10.75C0 11.3136 0.223883 11.8541 0.622398 12.2526C1.02091 12.6511 1.56141 12.875 2.125 12.875H14.875C15.4386 12.875 15.9791 12.6511 16.3776 12.2526C16.7761 11.8541 17 11.3136 17 10.75V9.6875H0Z" fill="#699B2C"/>
</svg>
