<svg width="14" height="14" viewBox="0 0 14 14" fill="none" xmlns="http://www.w3.org/2000/svg">
<path d="M12.8137 13.6629C5.7045 13.6729 0.30867 8.21292 0.31617 1.16542C0.31617 0.70459 0.689503 0.32959 1.1495 0.32959H3.3495C3.762 0.32959 4.11284 0.632923 4.17367 1.04126C4.31876 2.02047 4.6036 2.9738 5.0195 3.87209L5.10534 4.05709C5.16299 4.18158 5.1754 4.32229 5.14041 4.45495C5.10542 4.58761 5.02523 4.7039 4.91367 4.78376C4.232 5.27042 3.972 6.24959 4.50284 7.01292C5.17116 7.97403 6.00529 8.80844 6.96617 9.47709C7.73034 10.0071 8.7095 9.74709 9.19534 9.06626C9.27512 8.95436 9.3915 8.87388 9.52435 8.83872C9.6572 8.80357 9.79816 8.81596 9.92284 8.87376L10.107 8.95876C11.0053 9.37542 11.9587 9.66042 12.9378 9.80542C13.3462 9.86626 13.6495 10.2171 13.6495 10.6304V12.8296C13.6495 12.9391 13.6279 13.0475 13.586 13.1487C13.5441 13.2498 13.4826 13.3417 13.4051 13.4191C13.3277 13.4965 13.2357 13.5579 13.1345 13.5997C13.0333 13.6416 12.9248 13.663 12.8153 13.6629H12.8137Z" fill="white"/>
</svg>
