<svg width="14" height="16" viewBox="0 0 14 16" fill="none" xmlns="http://www.w3.org/2000/svg">
<path d="M9 3.63974e-06C9.46445 -0.000135784 9.91976 0.129109 10.3149 0.373245C10.71 0.617381 11.0293 0.966756 11.2369 1.38219C11.4446 1.79763 11.5324 2.2627 11.4906 2.72526C11.4487 3.18783 11.2789 3.62958 11 4.001L13 4C13.2652 4 13.5196 4.10536 13.7071 4.2929C13.8946 4.48043 14 4.73479 14 5V8C14 8.26522 13.8946 8.51957 13.7071 8.70711C13.5196 8.89465 13.2652 9 13 9V13.5C13 14.163 12.7366 14.7989 12.2678 15.2678C11.7989 15.7366 11.163 16 10.5 16H3.5C2.83696 16 2.20107 15.7366 1.73223 15.2678C1.26339 14.7989 1 14.163 1 13.5V9C0.734784 9 0.48043 8.89465 0.292893 8.70711C0.105357 8.51957 0 8.26522 0 8V5C0 4.73479 0.105357 4.48043 0.292893 4.2929C0.48043 4.10536 0.734784 4 1 4L3 4.001C2.80302 3.73836 2.65969 3.43949 2.57822 3.12146C2.49674 2.80342 2.4787 2.47246 2.52513 2.14745C2.57156 1.82245 2.68154 1.50977 2.84881 1.22727C3.01608 0.944772 3.23736 0.697986 3.5 0.501004C3.76264 0.304021 4.06151 0.160698 4.37955 0.0792194C4.69758 -0.00225957 5.02855 -0.0202995 5.35355 0.0261298C5.67856 0.0725591 5.99124 0.182548 6.27373 0.349818C6.55623 0.517087 6.80302 0.73836 7 1.001C7.23222 0.689752 7.53402 0.437129 7.88129 0.263322C8.22856 0.0895141 8.61167 -0.000660284 9 3.63974e-06ZM6.5 9H2V13.5C2 13.8978 2.15804 14.2794 2.43934 14.5607C2.72064 14.842 3.10218 15 3.5 15H6.5V9ZM12 9H7.5V15H10.5C10.8978 15 11.2794 14.842 11.5607 14.5607C11.842 14.2794 12 13.8978 12 13.5V9ZM6.5 5H1V8H6.5V5ZM13 5H7.5V8H13V5ZM9 1C8.60218 1 8.22064 1.15804 7.93934 1.43934C7.65804 1.72065 7.5 2.10218 7.5 2.5V4H9C9.39782 4 9.77936 3.84197 10.0607 3.56066C10.342 3.27936 10.5 2.89783 10.5 2.5C10.5 2.10218 10.342 1.72065 10.0607 1.43934C9.77936 1.15804 9.39782 1 9 1ZM5 1C4.61478 1.00019 4.24441 1.14858 3.96561 1.41441C3.68682 1.68025 3.52099 2.04315 3.50248 2.42792C3.48396 2.81269 3.61419 3.18984 3.86618 3.48121C4.11816 3.77257 4.47258 3.95583 4.856 3.993L5 4H6.5V2.5L6.493 2.356C6.4572 1.98484 6.28445 1.64032 6.00842 1.38962C5.73239 1.13892 5.37288 1.00002 5 1Z" fill="#699B2C"/>
</svg>
