<svg width="28" height="28" viewBox="0 0 28 28" fill="none" xmlns="http://www.w3.org/2000/svg">
<path d="M27.9706 26.515L20.1965 18.7409C22.0646 16.4981 22.9962 13.6214 22.7974 10.7093C22.5987 7.79717 21.2848 5.07378 19.1292 3.10568C16.9736 1.13757 14.1422 0.0762818 11.2241 0.142588C8.3059 0.208894 5.52565 1.39769 3.46166 3.46167C1.39768 5.52566 0.208884 8.30591 0.142578 11.2241C0.0762722 14.1422 1.13756 16.9736 3.10567 19.1292C5.07377 21.2848 7.79717 22.5987 10.7093 22.7974C13.6214 22.9962 16.4981 22.0646 18.7409 20.1965L26.515 27.9706L27.9706 26.515ZM2.23528 11.5C2.23528 9.66761 2.77865 7.87638 3.79667 6.3528C4.81469 4.82923 6.26164 3.64175 7.95454 2.94053C9.64744 2.2393 11.5103 2.05583 13.3074 2.41331C15.1046 2.77079 16.7554 3.65317 18.0511 4.94886C19.3468 6.24455 20.2292 7.89537 20.5867 9.69254C20.9442 11.4897 20.7607 13.3525 20.0595 15.0454C19.3582 16.7383 18.1708 18.1853 16.6472 19.2033C15.1236 20.2213 13.3324 20.7647 11.5 20.7647C9.04367 20.762 6.68874 19.785 4.95186 18.0481C3.21498 16.3112 2.23801 13.9563 2.23528 11.5Z" fill="white"/>
</svg>
