<svg width="16" height="14" viewBox="0 0 16 14" fill="none" xmlns="http://www.w3.org/2000/svg">
<path d="M0.416504 2.84383C0.416504 2.23328 0.659044 1.64774 1.09077 1.21601C1.52249 0.784288 2.10804 0.541748 2.71859 0.541748H12.2811C12.5834 0.541748 12.8828 0.601293 13.1621 0.716984C13.4414 0.832674 13.6951 1.00224 13.9089 1.21601C14.1227 1.42978 14.2922 1.68356 14.4079 1.96286C14.5236 2.24216 14.5832 2.54152 14.5832 2.84383V3.72925H0.416504V2.84383ZM6.91475 10.4584H2.71859C2.10804 10.4584 1.52249 10.2159 1.09077 9.78415C0.659044 9.35243 0.416504 8.76688 0.416504 8.15633V4.79175H11.3957C10.7006 4.79159 10.0145 4.94881 9.38889 5.25161C8.76325 5.55441 8.21428 5.99493 7.78316 6.54013C7.35204 7.08534 7.04995 7.72107 6.89956 8.39967C6.74916 9.07827 6.75435 9.78211 6.91475 10.4584ZM11.3957 5.50008C12.4289 5.50008 13.4198 5.91053 14.1504 6.64114C14.8811 7.37175 15.2915 8.36268 15.2915 9.39591C15.2915 10.4292 14.8811 11.4201 14.1504 12.1507C13.4198 12.8813 12.4289 13.2917 11.3957 13.2917C10.3624 13.2917 9.37151 12.8813 8.6409 12.1507C7.91029 11.4201 7.49984 10.4292 7.49984 9.39591C7.49984 8.36268 7.91029 7.37175 8.6409 6.64114C9.37151 5.91053 10.3624 5.50008 11.3957 5.50008ZM12.8123 9.39591H11.3957V7.62508C11.3957 7.53115 11.3584 7.44107 11.2919 7.37465C11.2255 7.30823 11.1354 7.27091 11.0415 7.27091C10.9476 7.27091 10.8575 7.30823 10.7911 7.37465C10.7247 7.44107 10.6873 7.53115 10.6873 7.62508V9.75008C10.6873 9.84401 10.7247 9.9341 10.7911 10.0005C10.8575 10.0669 10.9476 10.1042 11.0415 10.1042H12.8123C12.9063 10.1042 12.9964 10.0669 13.0628 10.0005C13.1292 9.9341 13.1665 9.84401 13.1665 9.75008C13.1665 9.65615 13.1292 9.56607 13.0628 9.49965C12.9964 9.43323 12.9063 9.39591 12.8123 9.39591Z" fill="#699B2C"/>
</svg>
