<svg width="17" height="14" viewBox="0 0 17 14" fill="none" xmlns="http://www.w3.org/2000/svg">
<path d="M14.025 8.925C12.7341 8.925 11.6875 9.97156 11.6875 11.2625C11.6875 12.5534 12.7341 13.6 14.025 13.6C15.3159 13.6 16.3625 12.5534 16.3625 11.2625C16.3625 9.97156 15.3159 8.925 14.025 8.925ZM14.025 11.9C13.6736 11.9 13.3875 11.6139 13.3875 11.2625C13.3875 10.9111 13.6736 10.625 14.025 10.625C14.3764 10.625 14.6625 10.9111 14.6625 11.2625C14.6625 11.6139 14.3764 11.9 14.025 11.9ZM16.15 4.25H14.45V3.18219C14.45 2.80713 14.5748 2.44481 14.7993 2.1505C14.9167 1.99644 14.8936 1.77703 14.7642 1.6328L14.1897 0.990782C14.0128 0.792891 13.7031 0.806969 13.5336 1.0115C13.031 1.61766 12.75 2.38558 12.75 3.18219V4.25H10.0319L8.54197 0.774032C8.4441 0.544221 8.28077 0.34829 8.07232 0.210652C7.86388 0.0730143 7.61955 -0.000245683 7.36977 6.19015e-07H3.825C3.12189 6.19015e-07 2.55 0.571891 2.55 1.275V5.16694C2.32077 4.98817 1.99325 4.99534 1.78261 5.20599L0.95625 6.03234C0.728078 6.26052 0.728078 6.63053 0.95625 6.8587L1.09066 6.99311C0.958109 7.23908 0.852656 7.49302 0.774297 7.75599H0.584375C0.261641 7.75599 0 8.01763 0 8.34036V9.50911C0 9.83184 0.261641 10.0935 0.584375 10.0935H0.774031C0.852656 10.3567 0.957844 10.6104 1.09039 10.8566L0.955984 10.991C0.727813 11.2192 0.727813 11.5892 0.955984 11.8174L1.78234 12.6438C2.01052 12.8719 2.38053 12.8719 2.6087 12.6438L2.74311 12.5093C2.98908 12.6419 3.24302 12.7473 3.50598 12.8257V13.0156C3.50598 13.3384 3.76763 13.6 4.09036 13.6H5.25911C5.58184 13.6 5.84348 13.3384 5.84348 13.0156V12.826C6.10645 12.7476 6.36039 12.6422 6.60636 12.5096L6.74077 12.644C6.96894 12.8722 7.33895 12.8722 7.56713 12.644L8.39348 11.8177C8.62166 11.5895 8.62166 11.2195 8.39348 10.9913L8.25908 10.8569C8.39163 10.6109 8.49708 10.357 8.57544 10.094H8.76562C9.08836 10.094 9.35 9.83238 9.35 9.50964V9.35027H11.4893C12.0713 8.58022 12.9853 8.07527 14.025 8.07527C14.5201 8.07527 14.9831 8.19772 15.4009 8.39933L16.7508 7.04942C16.9102 6.89005 16.9997 6.67383 16.9997 6.44831V5.1C17 4.63064 16.6194 4.25 16.15 4.25ZM4.675 11.05C3.50147 11.05 2.55 10.0985 2.55 8.925C2.55 7.75147 3.50147 6.8 4.675 6.8C5.84853 6.8 6.8 7.75147 6.8 8.925C6.8 10.0985 5.84853 11.05 4.675 11.05ZM5.25938 4.25H4.25V1.7H7.08927L8.18231 4.25H5.25938Z" fill="#699B2C"/>
</svg>
