<svg width="17" height="15" viewBox="0 0 17 15" fill="none" xmlns="http://www.w3.org/2000/svg">
<path d="M15.3133 3.25H2.65625C2.36273 3.25 2.125 3.01227 2.125 2.71875C2.125 2.42523 2.36273 2.1875 2.65625 2.1875H15.4062C15.6998 2.1875 15.9375 1.94977 15.9375 1.65625C15.9375 0.776035 15.224 0.0625 14.3438 0.0625H2.125C0.95127 0.0625 0 1.01377 0 2.1875V12.8125C0 13.9862 0.95127 14.9375 2.125 14.9375H15.3133C16.2436 14.9375 17 14.2226 17 13.3438V4.84375C17 3.96486 16.2436 3.25 15.3133 3.25ZM13.8125 10.1562C13.2258 10.1562 12.75 9.68045 12.75 9.09375C12.75 8.50705 13.2258 8.03125 13.8125 8.03125C14.3992 8.03125 14.875 8.50705 14.875 9.09375C14.875 9.68045 14.3992 10.1562 13.8125 10.1562Z" fill="#699B2C"/>
</svg>
