<svg width="32" height="23" viewBox="0 0 32 23" fill="none" xmlns="http://www.w3.org/2000/svg">
<path fill-rule="evenodd" clip-rule="evenodd" d="M17.2305 0.395987C18.2315 0.719014 18.8357 1.43398 18.9896 2.47771C19.0887 3.14954 18.9002 3.33259 18.1091 3.33259C17.8552 3.33259 17.635 3.35286 17.6197 3.37771C17.5902 3.4254 17.9751 7.58731 18.0205 7.71247C18.0413 7.76972 18.6842 7.78571 20.9664 7.78571C24.1815 7.78571 24.2496 7.79198 24.9229 8.15087C25.9606 8.70394 26.6637 9.76155 26.9946 11.2669C27.0405 11.4758 27.071 11.505 27.3379 11.5954C30.4175 12.6387 31.9041 16.2918 30.4491 19.2408C28.2262 23.7463 21.5913 23.1528 20.1972 18.3237L20.056 17.8345L17.5933 17.8192L15.1305 17.804L14.9742 17.6182C14.8428 17.462 14.8231 17.3946 14.851 17.1941C15.8759 9.82155 7.62025 5.44929 2.23918 10.5148C1.22339 11.471 1.00003 11.2825 1.00003 9.46917C1.00003 6.76021 1.96671 5.79353 4.67574 5.79353C6.01683 5.79353 5.83255 5.96028 6.12394 4.48296C6.34777 3.34835 6.34742 3.33259 6.09804 3.33259C5.51808 3.33259 5.43845 3.12505 5.46336 1.67802L5.48246 0.568311L5.64687 0.427041L5.81129 0.285713L11.3598 0.288877C16.5083 0.291807 16.9314 0.299483 17.2305 0.395987ZM6.53714 1.80915V2.2486L12.1768 2.26355C16.8272 2.27585 17.8164 2.26489 17.8164 2.20085C17.8164 2.04851 17.3785 1.61509 17.0873 1.47933L16.7911 1.34122L11.6641 1.35546L6.53714 1.3697V1.80915ZM7.46158 3.40583C7.40779 3.47521 6.68357 7.01022 6.68363 7.20288C6.68363 7.28093 6.80656 7.29417 7.54789 7.29605C10.8298 7.30419 13.7645 9.17128 15.1918 12.1592L15.4817 12.7662H16.4112C16.9225 12.7662 17.3558 12.7419 17.3742 12.7122C17.4119 12.6512 16.5461 3.46888 16.4949 3.38597C16.4398 3.29696 7.53072 3.31653 7.46158 3.40583ZM3.30248 6.97495C2.58353 7.2439 2.05472 8.01065 2.05472 8.78403C2.05472 9.18522 2.09251 9.20532 2.39785 8.96614C3.03294 8.46874 4.11851 7.92464 4.98441 7.66976C5.22611 7.59862 5.44572 7.5197 5.47244 7.49439C5.54093 7.42946 5.63814 6.96915 5.5973 6.90306C5.52154 6.78048 3.66693 6.83854 3.30248 6.97495ZM18.1453 8.88827C18.1291 8.91458 18.2123 9.95526 18.3303 11.201L18.5448 13.4659L18.3747 13.6434L18.2047 13.8209H17.0145H15.8243L15.8257 13.9527C15.8264 14.0252 15.8553 14.19 15.8898 14.3189C15.9243 14.4478 15.9699 15.0411 15.991 15.6373L16.0293 16.7213H17.9922H19.9551L19.9982 16.2888C20.2725 13.538 22.4294 11.4619 25.17 11.3108L25.8731 11.272L25.8554 11.1058C25.8457 11.0142 25.7746 10.7967 25.6975 10.6224L25.5573 10.3052H24.9095C24.3427 10.3052 24.2473 10.2908 24.146 10.1895C23.8753 9.91876 23.9575 9.47403 24.3052 9.32878C24.567 9.21939 24.5263 9.13202 24.1402 8.97405C23.8091 8.83858 18.2254 8.75866 18.1453 8.88827ZM8.16517 9.31601C14.2149 9.89896 16.1671 17.9003 11.0775 21.2533C6.00347 24.596 -0.539223 19.6535 1.27759 13.8502C2.11302 11.1815 5.12703 8.99046 7.59183 9.25999C7.62406 9.26351 7.88205 9.2887 8.16517 9.31601ZM6.42089 10.4595C2.50999 11.2059 0.737242 15.9622 3.18629 19.1378C5.22699 21.784 9.25179 21.9697 11.4898 19.521C15.062 15.6124 11.624 9.4663 6.42089 10.4595ZM24.537 12.4505C21.3386 13.1673 19.9839 16.9686 22.006 19.5529C24.0654 22.1849 28.1564 21.6776 29.5592 18.6162C31.0655 15.3291 28.075 11.6576 24.537 12.4505ZM8.11917 12.8344C9.62703 13.118 10.7104 14.6727 10.4908 16.2379C10.1441 18.7091 7.02793 19.6906 5.32009 17.8665C3.29802 15.7068 5.20109 12.2855 8.11917 12.8344ZM6.70589 14.0236C5.45849 14.5865 5.15861 16.2079 6.12353 17.1728C6.87599 17.9252 8.05396 17.9408 8.82822 17.2085C10.4095 15.713 8.68783 13.1293 6.70589 14.0236ZM25.8866 14.8201C27.4679 15.1323 28.0596 17.0383 26.9375 18.2057C25.9395 19.2439 24.1177 18.8792 23.6197 17.5416C23.0639 16.0487 24.3412 14.5151 25.8866 14.8201ZM24.9919 15.9909C24.2155 16.4679 24.5697 17.7467 25.4783 17.7467C26.1171 17.7467 26.5882 17.1635 26.4285 16.5703C26.2583 15.938 25.5457 15.6506 24.9919 15.9909Z" fill="white"/>
</svg>
