<svg width="31" height="24" viewBox="0 0 31 24" fill="none" xmlns="http://www.w3.org/2000/svg">
<path fill-rule="evenodd" clip-rule="evenodd" d="M14.4394 0.491833C13.1307 0.87111 12.9705 2.70105 14.1907 3.33205L14.3594 3.41929V4.08515C14.3594 4.88812 14.4266 5.025 14.8211 5.025C15.2088 5.025 15.2628 4.92691 15.2969 4.16156L15.3262 3.5042H16.1172H16.9083V5.58427V7.66435H16.1172H15.3262L15.2969 7.04314C15.2587 6.23232 15.0781 6.00562 14.6224 6.19605C14.3846 6.29537 14.3642 6.36216 14.3447 7.10771C14.3311 7.62592 14.322 7.66336 14.2129 7.65C14.1485 7.64215 13.8382 7.61836 13.5234 7.59715L12.951 7.55865L11.1275 6.01025C8.91408 4.13074 9.65699 4.35369 5.61051 4.35439L2.20123 4.35498L1.90826 4.49168C0.709197 5.05125 0.673279 6.80924 1.84949 7.36734C2.2348 7.55021 2.6701 7.57646 5.31795 7.57646H7.97916L8.88414 8.34656C9.92336 9.23086 9.86593 9.11508 9.52199 9.63246C8.91467 10.546 8.65363 11.6626 8.7915 12.7571C8.87306 13.4045 9.02336 13.2768 7.26959 14.0517C3.59037 15.6775 4.04693 15.2357 4.04693 17.1704V18.7146L4.19078 18.8584C4.28142 18.9491 4.40154 19.0022 4.51568 19.0022C4.62982 19.0022 4.74994 18.9491 4.84058 18.8584L4.98443 18.7146V17.4263C4.98443 16.459 5.00265 16.1268 5.05767 16.0927C5.29398 15.9462 9.11763 14.272 9.16955 14.2923C9.20418 14.3058 9.3489 14.5053 9.49123 14.7357C10.1992 15.8817 11.059 16.4019 12.7727 16.721C13.8362 16.9191 13.7889 16.8872 13.6792 17.3323C13.188 19.325 13.9611 20.5495 15.4516 20.1397C15.561 20.1096 15.59 20.1453 15.6778 20.418C17.1162 24.883 23.673 24.9734 25.2293 20.5496C25.3541 20.1949 25.3882 20.1471 25.5053 20.1631C26.3074 20.2728 26.7086 20.1465 27.1461 19.6463L27.4063 19.3488L27.6651 19.4085C29.1621 19.7535 29.4816 19.4546 30.4161 16.8345L31.0001 15.1972V14.5858C31.0001 13.3062 30.3638 12.2341 29.2655 11.6628L28.8493 11.4463L28.8163 10.4636C28.7651 8.94006 28.3468 8.189 27.3672 7.86222C27.0007 7.74 27.0157 7.81359 27.0157 6.13142C27.0157 3.56502 27.1407 3.65068 23.3935 3.65068C19.5976 3.65068 19.7397 3.55623 19.6915 6.11162L19.6622 7.66435H18.7833H17.9044L17.889 5.54912L17.8736 3.43388L18.1826 3.22875C19.2276 2.53482 19.0172 0.924138 17.8285 0.519079C17.5244 0.415485 14.779 0.393396 14.4394 0.491833ZM17.7628 1.58619C17.9998 1.85162 17.9911 2.08148 17.7344 2.33818L17.5352 2.5374H16.0893H14.6434L14.4721 2.36613C14.1886 2.08259 14.2608 1.63617 14.6231 1.43191C14.7032 1.38679 15.1915 1.37045 16.1661 1.38035L17.5919 1.39482L17.7628 1.58619ZM25.9839 4.69834C26.0628 4.78547 26.08 4.89879 26.0662 5.24033L26.0489 5.67216L24.4181 5.70146C22.6026 5.7341 22.6211 5.72947 22.6211 6.1456C22.6211 6.598 22.6511 6.60609 24.4469 6.63896L26.0489 6.66826V7.16631V7.66435H23.3536H20.6583L20.6426 6.24451C20.6276 4.88748 20.6321 4.81939 20.7451 4.70642C20.9233 4.52824 25.8231 4.52068 25.9839 4.69834ZM5.77545 5.96513V6.60966L4.3106 6.62707C2.03494 6.65408 1.33802 6.28927 2.13765 5.48965L2.33775 5.28955L4.0566 5.30508L5.77545 5.3206V5.96513ZM9.3666 5.7747C11.9024 7.90119 11.8269 7.82431 11.511 7.95633C11.3946 8.00496 11.1473 8.13715 10.9613 8.25006C10.513 8.52246 10.608 8.56242 9.534 7.6497C9.01258 7.20662 8.53633 6.80449 8.47562 6.75615C8.39459 6.69164 8.15353 6.66047 7.56842 6.63896L6.77154 6.60966L6.75467 6.02789C6.73129 5.22398 6.63631 5.29131 7.79365 5.29131H8.79009L9.3666 5.7747ZM17.9295 9.59174C22.5136 10.7886 22.504 10.7873 22.504 10.2093C22.504 9.76511 22.8491 9.89039 18.6221 8.80049C18.0476 8.65236 18.5359 8.63115 22.5226 8.63115C27.8977 8.63115 27.8167 8.60437 27.8827 10.4036C27.9162 11.3167 28.1608 11.2838 25.8387 10.6787C24.2017 10.2522 24.012 10.2142 23.8668 10.2837C23.4815 10.4684 23.5146 11.0115 23.9192 11.1431C24.0271 11.1781 25.1271 11.4704 26.3637 11.7926C29.4839 12.6056 29.9824 12.9665 30.0496 14.4612L30.0733 14.9886L29.4831 16.6292C28.7808 18.5811 28.7918 18.5655 28.1609 18.5167C27.4729 18.4635 27.4519 18.4464 27.3718 17.8786C26.4323 11.2116 17.3203 9.6147 14.308 15.5892C14.0881 16.0253 14.1395 16.0167 13.0118 15.8077C11.8667 15.5954 11.5203 15.4624 11.0087 15.0383C9.00285 13.3756 9.38822 10.0798 11.7227 8.93179C12.9865 8.31029 13.0459 8.31662 17.9295 9.59174ZM12.02 10.309C11.6296 10.8052 11.8548 10.9541 13.7389 11.4455C15.7483 11.9696 15.9415 11.9664 15.9415 11.4078C15.9415 11.0519 15.8561 11.012 14.1424 10.5678C12.3449 10.1019 12.1971 10.0838 12.02 10.309ZM11.5424 12.2009C11.1082 12.6351 11.3335 12.8544 12.5454 13.1773C13.8091 13.5139 13.9892 13.5005 14.0993 13.0619C14.1903 12.699 13.9819 12.5699 12.8183 12.2691C11.7143 11.9835 11.7575 11.9858 11.5424 12.2009ZM21.4766 12.8805C24.2664 13.367 26.4883 15.9075 26.4883 18.6107C26.4883 19.721 25.62 19.4841 25.502 18.3417C24.8612 12.141 15.4141 12.4406 15.4141 18.6616C15.4141 19.1957 15.0142 19.4442 14.6491 19.137L14.461 18.9787L14.4938 18.3899C14.688 14.9057 18.019 12.2776 21.4766 12.8805ZM21.4786 14.8127C23.9492 15.4393 25.2748 18.2026 24.2052 20.4964C22.6185 23.8991 17.8039 23.6481 16.5805 20.0989C15.5378 17.0736 18.3645 14.0228 21.4786 14.8127ZM20.0259 16.1359C18.6764 16.3356 17.644 17.6766 17.7829 19.0492C18.0188 21.3793 20.8906 22.3612 22.4577 20.6477C24.2049 18.7373 22.5976 15.7553 20.0259 16.1359ZM21.2713 17.2611C22.58 17.9125 22.5526 19.7398 21.2243 20.3921C20.5693 20.7138 19.7532 20.5689 19.2344 20.0389C17.8313 18.6055 19.4733 16.3662 21.2713 17.2611Z" fill="white"/>
</svg>
