<svg width="30" height="20" viewBox="0 0 30 20" fill="none" xmlns="http://www.w3.org/2000/svg">
<path fill-rule="evenodd" clip-rule="evenodd" d="M1.65471 0.265598C0.619064 0.746125 0.584201 2.27841 1.59612 2.83991C1.7392 2.91937 2.00451 2.94292 3.02322 2.96677L4.27455 2.99607L5.20408 5.22263C6.33002 7.91964 6.29856 7.65427 5.4926 7.65427C4.54795 7.65427 4.61369 7.51482 4.61369 9.51808C4.61369 11.6053 4.39842 11.3677 6.32276 11.4043L7.86565 11.4336L7.88235 12.0006L7.8991 12.5676L7.47524 12.7903C4.07557 14.5768 5.4394 19.8494 9.30119 19.8494C13.1593 19.8494 14.5248 14.5758 11.1288 12.7912L10.7033 12.5676L10.72 12.0006L10.7367 11.4336H12.5824H14.4281L14.4457 11.7709C14.4597 12.0383 14.414 12.2599 14.226 12.8378C13.7752 14.2234 13.932 14.8752 14.8872 15.587C16.1714 16.5439 16.9801 17.852 17.2389 19.3909C17.5484 21.23 19.6137 18.2808 19.6137 16.0001C19.6137 15.6316 19.6301 15.3301 19.6502 15.3301C19.7558 15.3301 20.461 15.9029 20.8505 16.3052C21.6685 17.1498 22.1261 18.045 22.3691 19.2757C22.7424 21.1666 24.7699 18.4003 24.7699 16.0001C24.7699 15.6316 24.7863 15.3301 24.8064 15.3301C24.912 15.3301 25.6172 15.9029 26.0068 16.3052C26.8248 17.1498 27.2824 18.045 27.5254 19.2757C27.6558 19.9363 28.1033 20.0601 28.5659 19.5634C30.618 17.3608 30.3195 13.8234 27.95 12.2656L27.5773 12.0206L27.5945 11.7271L27.6117 11.4336L28.1098 11.4014C30.0975 11.2731 30.6667 8.63472 28.8844 7.8113L28.6078 7.68357L19.1229 7.65427L9.63787 7.62497L8.03328 3.96286C7.15074 1.9487 6.3844 0.267824 6.33031 0.227512C6.15043 0.0935662 1.95172 0.127785 1.65471 0.265598ZM4.93233 1.14445C4.95026 1.17345 4.82545 1.37782 4.655 1.59855L4.3451 1.99997L3.33822 2.01603C2.0075 2.03718 1.75397 1.93154 1.88475 1.41034C1.95395 1.13478 4.77424 0.888742 4.93233 1.14445ZM7.22563 4.63347C8.70834 8.02101 8.62918 7.66253 7.89002 7.64167L7.29916 7.62497L6.24395 5.09694L5.18879 2.56892L5.50145 2.15103C5.92783 1.58132 5.82483 1.43302 7.22563 4.63347ZM14.4281 9.52927V10.4375H10.0043H5.58049L5.56414 9.59056C5.55518 9.12474 5.56098 8.70931 5.57709 8.66736C5.60088 8.60542 6.43742 8.59388 10.0173 8.60607L14.4281 8.62107V9.52927ZM16.3031 10.2324V11.8437H15.8637H15.4242L15.4086 10.2919C15.3898 8.42642 15.3465 8.58234 15.8775 8.60384L16.3031 8.62107V10.2324ZM19.5844 9.52927V10.4375H18.4418H17.2992L17.2829 9.59056C17.2739 9.12474 17.2799 8.7089 17.2962 8.66642C17.3196 8.60548 17.5634 8.59259 18.4551 8.60513L19.5844 8.62107V9.52927ZM21.4594 10.2324V11.8437H21.0199H20.5805L20.5648 10.2919C20.546 8.42642 20.5027 8.58234 21.0338 8.60384L21.4594 8.62107V10.2324ZM24.7406 9.52927V10.4375H23.5981H22.4555L22.4391 9.59056C22.4302 9.12474 22.4362 8.7089 22.4524 8.66642C22.4758 8.60548 22.7197 8.59259 23.6114 8.60513L24.7406 8.62107V9.52927ZM26.6156 10.2324V11.8437H26.1762H25.7367L25.7211 10.2919C25.7023 8.42642 25.659 8.58234 26.19 8.60384L26.6156 8.62107V10.2324ZM28.4885 8.75806C29.3172 9.24204 28.9481 10.3914 27.9529 10.4257L27.6117 10.4375L27.5954 9.59056C27.5745 8.50839 27.7619 8.33372 28.4885 8.75806ZM9.74065 11.873V12.3125H9.30119H8.86174L8.8441 11.9378C8.81856 11.3961 8.81844 11.3962 9.31502 11.4163L9.74065 11.4336V11.873ZM19.602 11.7709C19.6159 12.0383 19.5703 12.2599 19.3822 12.8378C19.2518 13.239 19.1449 13.6079 19.1449 13.6576C19.1449 13.8211 19.0505 13.7527 18.826 13.4268C18.5554 13.0339 17.8997 12.4067 17.5376 12.1945C17.2795 12.0433 17.2699 12.0278 17.2699 11.7601C17.2699 11.3836 17.213 11.3999 18.4675 11.4177L19.5844 11.4336L19.602 11.7709ZM24.7582 11.7709C24.7722 12.0383 24.7265 12.2599 24.5385 12.8378C24.408 13.239 24.3012 13.6079 24.3012 13.6576C24.3012 13.8211 24.2067 13.7527 23.9823 13.4268C23.7116 13.0339 23.0559 12.4067 22.6938 12.1945C22.4357 12.0433 22.4262 12.0278 22.4262 11.7601C22.4262 11.3836 22.3693 11.3999 23.6237 11.4177L24.7406 11.4336L24.7582 11.7709ZM17.0444 13.0938C18.5479 14.0753 19.0677 16.0766 18.2492 17.7324C18.0231 18.19 17.9968 18.1826 17.7563 17.595C17.394 16.71 16.6992 15.7613 15.9809 15.1709C15.0651 14.4183 14.9848 14.3267 14.9848 14.0349C14.9848 13.8074 15.1933 13.0532 15.307 12.8692C15.3276 12.8359 15.6168 12.8105 15.9768 12.8105H16.6104L17.0444 13.0938ZM22.2006 13.0938C23.7042 14.0753 24.224 16.0766 23.4055 17.7324C23.1793 18.19 23.153 18.1826 22.9125 17.595C22.5502 16.71 21.8554 15.7613 21.1371 15.1709C20.2214 14.4183 20.141 14.3267 20.141 14.0349C20.141 13.8074 20.3495 13.0532 20.4632 12.8692C20.4839 12.8359 20.7731 12.8105 21.1331 12.8105H21.7666L22.2006 13.0938ZM27.3569 13.0938C28.8604 14.0753 29.3802 16.0766 28.5617 17.7324C28.3298 18.2017 28.3157 18.1986 28.0852 17.627C27.7275 16.7398 27.0166 15.7653 26.2934 15.1709C25.3776 14.4183 25.2973 14.3267 25.2973 14.0349C25.2973 13.8074 25.5058 13.0532 25.6195 12.8692C25.6401 12.8359 25.9293 12.8105 26.2893 12.8105H26.9229L27.3569 13.0938ZM10.1162 13.4489C11.8284 13.9818 12.6054 16.0598 11.6495 17.5496C10.1465 19.8917 6.54729 18.8633 6.54729 16.0918C6.54729 14.2286 8.34471 12.8975 10.1162 13.4489ZM8.55201 14.3419C7.04463 14.9211 7.05588 17.2785 8.56871 17.8445C9.87981 18.3351 11.1762 17.4636 11.1762 16.0918C11.1762 14.7177 9.8593 13.8395 8.55201 14.3419ZM9.75582 15.3298C10.518 15.7945 10.1922 16.9703 9.30119 16.9703C9.14123 16.9703 8.9624 16.9244 8.84656 16.8538C8.08438 16.3891 8.41022 15.2133 9.30119 15.2133C9.46115 15.2133 9.63998 15.2591 9.75582 15.3298Z" fill="white"/>
</svg>
