<svg width="24" height="24" viewBox="0 0 24 24" fill="none" xmlns="http://www.w3.org/2000/svg">
<path fill-rule="evenodd" clip-rule="evenodd" d="M11.7236 0.536654C11.6403 0.599867 11.6281 0.677325 11.6072 1.27446L11.584 1.94169L10.7694 1.97171C1.33561 2.3192 -3.08343 13.9643 3.72339 20.5395C10.4108 26.9994 21.7066 22.4747 22.0299 13.2065L22.0575 12.4152L22.7247 12.3919C23.94 12.3495 23.7713 9.84152 22.3568 6.92113L22.0856 6.36128L22.2218 5.82723C22.459 4.89713 22.4491 4.85063 21.771 3.71991C21.2147 2.79237 21.2068 2.78446 20.2793 2.2282C19.1455 1.54821 19.1121 1.54109 18.1712 1.77863L17.6187 1.91813L17.2779 1.73436C15.7141 0.891031 12.2431 0.14257 11.7236 0.536654ZM13.3621 1.33874C18.2928 1.98503 22.2013 6.00691 22.6947 10.942C22.7725 11.7202 22.8785 11.6512 21.6295 11.6364L20.5708 11.6239L20.5152 11.1215C20.067 7.07581 16.9352 3.9318 12.9106 3.48725L12.3753 3.42814L12.3627 2.40671C12.3465 1.09138 12.2513 1.19313 13.3621 1.33874ZM19.7623 2.85568C20.8149 3.48381 21.8158 4.88559 21.5193 5.31649C21.4788 5.37533 21.4551 5.36513 21.3687 5.25155C20.5647 4.1948 19.8044 3.43451 18.7476 2.63047C18.634 2.54408 18.6239 2.52043 18.6827 2.47993C18.8545 2.3617 19.0464 2.4285 19.7623 2.85568ZM11.5954 3.31488C11.6133 4.23032 11.5749 4.18973 12.4776 4.24977C16.295 4.50388 19.5373 7.67913 19.7334 11.3556C19.7903 12.4223 19.7645 12.3919 20.6117 12.3919C21.3601 12.3919 21.2955 12.3075 21.2436 13.2177C20.6899 22.9167 8.1812 26.3381 2.85325 18.2478C-1.52134 11.6054 3.49539 2.49297 11.3978 2.72748L11.584 2.73302L11.5954 3.31488ZM10.1455 6.88086C5.43927 7.73071 3.62796 13.5847 7.02124 16.9779C10.7844 20.7412 17.1931 18.0864 17.1931 12.7643C17.1931 9.02226 13.8308 6.2153 10.1455 6.88086ZM11.7934 7.61773C16.4884 7.95168 18.0818 14.4313 14.1154 17.0606C9.4194 20.1735 3.82565 14.5798 6.93862 9.88374C7.87574 8.47005 9.87051 7.42325 11.328 7.58035C11.392 7.58724 11.6014 7.60405 11.7934 7.61773ZM10.7461 8.01168C9.88675 8.41042 9.90788 9.72184 10.7795 10.0854C11.5404 10.4028 12.35 9.86405 12.35 9.04041C12.35 8.20136 11.5052 7.65949 10.7461 8.01168ZM11.4676 8.80766C11.5193 8.85938 11.5607 8.96281 11.5607 9.04041C11.5607 9.11801 11.5193 9.22144 11.4676 9.27316C11.4159 9.32487 11.3125 9.36625 11.2349 9.36625C11.1573 9.36625 11.0538 9.32487 11.0021 9.27316C10.9504 9.22144 10.909 9.11801 10.909 9.04041C10.909 8.96281 10.9504 8.85938 11.0021 8.80766C11.0538 8.75595 11.1573 8.71457 11.2349 8.71457C11.3125 8.71457 11.4159 8.75595 11.4676 8.80766ZM10.5255 10.6204C8.97905 11.1147 8.47539 13.1122 9.59531 14.3095C10.7649 15.5599 12.9177 15.0556 13.3954 13.4192C13.9033 11.6793 12.2517 10.0685 10.5255 10.6204ZM11.8768 11.4549C12.7606 11.9109 12.9542 13.0931 12.2589 13.7884C11.3854 14.6619 9.88186 14.1063 9.80259 12.8807C9.72942 11.7492 10.8947 10.9481 11.8768 11.4549ZM7.02217 11.7356C6.16283 12.1343 6.18397 13.4458 7.05559 13.8093C7.81648 14.1267 8.62606 13.588 8.62606 12.7643C8.62606 11.9253 7.78125 11.3834 7.02217 11.7356ZM14.47 11.7356C13.6107 12.1343 13.6318 13.4458 14.5034 13.8093C15.2643 14.1267 16.0739 13.588 16.0739 12.7643C16.0739 11.9253 15.2291 11.3834 14.47 11.7356ZM7.74368 12.5316C7.7954 12.5833 7.83678 12.6867 7.83678 12.7643C7.83678 12.8419 7.7954 12.9454 7.74368 12.9971C7.69197 13.0488 7.58853 13.0902 7.51094 13.0902C7.43334 13.0902 7.32991 13.0488 7.27819 12.9971C7.22648 12.9454 7.18509 12.8419 7.18509 12.7643C7.18509 12.6867 7.22648 12.5833 7.27819 12.5316C7.32991 12.4799 7.43334 12.4385 7.51094 12.4385C7.58853 12.4385 7.69197 12.4799 7.74368 12.5316ZM15.1915 12.5316C15.2432 12.5833 15.2846 12.6867 15.2846 12.7643C15.2846 12.8419 15.2432 12.9454 15.1915 12.9971C15.1398 13.0488 15.0364 13.0902 14.9588 13.0902C14.8812 13.0902 14.7777 13.0488 14.726 12.9971C14.6743 12.9454 14.6329 12.8419 14.6329 12.7643C14.6329 12.6867 14.6743 12.5833 14.726 12.5316C14.7777 12.4799 14.8812 12.4385 14.9588 12.4385C15.0364 12.4385 15.1398 12.4799 15.1915 12.5316ZM3.07505 12.7936C2.86186 13.0068 3.2531 15.0249 3.70802 16.0586C4.95735 18.8973 8.15257 21.0742 10.8857 20.9487L11.2116 20.9337V20.5613V20.1889L10.708 20.1577C7.09921 19.9342 4.06496 16.9 3.84148 13.2912L3.81029 12.7876L3.45908 12.7742C3.2659 12.7668 3.09311 12.7755 3.07505 12.7936ZM10.7461 15.4595C9.88675 15.8583 9.90788 17.1697 10.7795 17.5332C11.5404 17.8506 12.35 17.3119 12.35 16.4882C12.35 15.6492 11.5052 15.1073 10.7461 15.4595ZM11.4676 16.2555C11.5193 16.3072 11.5607 16.4107 11.5607 16.4882C11.5607 16.5658 11.5193 16.6693 11.4676 16.721C11.4159 16.7727 11.3125 16.8141 11.2349 16.8141C11.1573 16.8141 11.0538 16.7727 11.0021 16.721C10.9504 16.6693 10.909 16.5658 10.909 16.4882C10.909 16.4107 10.9504 16.3072 11.0021 16.2555C11.0538 16.2038 11.1573 16.1624 11.2349 16.1624C11.3125 16.1624 11.4159 16.2038 11.4676 16.2555Z" fill="white"/>
</svg>
