<svg width="24" height="24" viewBox="0 0 24 24" fill="none" xmlns="http://www.w3.org/2000/svg">
<path fill-rule="evenodd" clip-rule="evenodd" d="M10.1685 0.530718C10.0776 0.621652 10.0722 0.691334 10.0722 1.76057C10.0722 2.89172 10.0719 2.89418 9.96374 2.93529C9.90408 2.95798 9.61677 3.04583 9.32523 3.1305C8.67356 3.31974 8.0123 3.59616 7.46419 3.90838C6.92625 4.21477 7.03333 4.25809 6.14326 3.37391C5.08338 2.32106 5.31358 2.27957 3.79652 3.79663C2.27946 5.31369 2.32095 5.08349 3.3738 6.14337C4.25799 7.03343 4.21466 6.92635 3.90827 7.4643C3.59605 8.0124 3.31964 8.67366 3.1304 9.32533C3.04573 9.61688 2.95788 9.90423 2.93518 9.96385C2.89407 10.072 2.89162 10.0723 1.76046 10.0723C0.26499 10.0723 0.434232 9.82631 0.434232 11.9999C0.434232 14.1734 0.26499 13.9274 1.76046 13.9274C2.89162 13.9274 2.89407 13.9277 2.93518 14.0359C2.95788 14.0955 3.04573 14.3828 3.1304 14.6744C3.31964 15.3261 3.59605 15.9873 3.90827 16.5354C4.21466 17.0734 4.25799 16.9663 3.3738 17.8563C2.32095 18.9162 2.27946 18.686 3.79652 20.2031C5.31358 21.7201 5.08338 21.6787 6.14326 20.6258C7.03333 19.7416 6.92625 19.7849 7.46419 20.0913C8.0123 20.4036 8.67356 20.68 9.32523 20.8692C9.61677 20.9539 9.90413 21.0417 9.96374 21.0644C10.0719 21.1055 10.0722 21.108 10.0722 22.2392C10.0722 23.7344 9.82775 23.5654 11.9905 23.5654C14.1504 23.5654 13.8969 23.7366 13.9273 22.2573L13.9514 21.0858L14.0719 21.0506C15.1402 20.7381 15.5648 20.5783 16.2378 20.2354C16.6487 20.0261 17.0072 19.8548 17.0346 19.8548C17.0619 19.8548 17.7998 20.5712 18.6743 21.4467C20.831 23.6061 21.2493 23.8146 22.371 23.2897C24.1756 22.4452 23.9367 21.1834 21.5104 18.7449C20.5997 17.8297 19.8547 17.0592 19.8547 17.0329C19.8547 17.0065 20.026 16.6488 20.2353 16.2379C20.5782 15.5649 20.738 15.1403 21.0504 14.072L21.0857 13.9515L22.2572 13.9274C23.7365 13.897 23.5653 14.1505 23.5653 11.9907C23.5653 9.82786 23.7343 10.0723 22.239 10.0723C21.1079 10.0723 21.1054 10.072 21.0643 9.96385C21.0416 9.90419 20.9538 9.61688 20.8691 9.32533C20.6799 8.67366 20.4035 8.0124 20.0912 7.4643C19.7848 6.92635 19.7415 7.03343 20.6257 6.14337C21.6786 5.08349 21.72 5.31369 20.203 3.79663C18.6859 2.27957 18.9161 2.32106 17.8562 3.37391C16.9662 4.25809 17.0733 4.21477 16.5353 3.90838C15.9872 3.59616 15.3259 3.31974 14.6743 3.1305C14.3827 3.04583 14.0954 2.95798 14.0358 2.93529C13.9276 2.89418 13.9273 2.89172 13.9273 1.76057C13.9273 0.265097 14.1733 0.434339 11.9998 0.434339C10.3292 0.434339 10.2614 0.437905 10.1685 0.530718ZM13.1563 2.37166C13.1846 3.7148 13.1089 3.57746 13.9332 3.78073C14.9477 4.03088 15.812 4.40252 16.6696 4.95728C16.8393 5.06705 17.0303 5.15693 17.0939 5.15693C17.1939 5.15693 18.4158 4.07555 18.6926 3.74203C18.802 3.61013 18.8402 3.6377 19.6011 4.39736C20.4022 5.19712 20.3936 5.18372 20.2104 5.35335C18.9797 6.49274 18.751 6.87971 19.0423 7.33004C19.6478 8.26598 20.081 9.32268 20.2873 10.3671C20.3809 10.841 20.3102 10.8158 21.6217 10.8433L22.7701 10.8674V11.9999V13.1323L21.628 13.1564C20.2873 13.1847 20.4258 13.1084 20.2214 13.9312C19.9915 14.8571 19.3817 16.3098 19.1971 16.3714C19.1722 16.3797 18.9195 16.1508 18.6356 15.8627L18.1195 15.339L18.309 14.9344C21.5736 7.96571 12.5104 1.61913 7.06874 7.06336C1.61931 12.5153 7.9576 21.5775 14.9343 18.3091L15.3389 18.1196L15.8626 18.6357C16.1507 18.9196 16.3789 19.1742 16.3698 19.2016C16.309 19.3841 14.8556 19.992 13.9311 20.2215C13.1083 20.4259 13.1846 20.2874 13.1563 21.6281L13.1322 22.7703H11.9998H10.8673L10.8432 21.6281C10.8149 20.2848 10.8907 20.4221 10.0651 20.2195C9.0904 19.9804 8.33633 19.6613 7.44583 19.1113C6.8423 18.7385 6.90394 18.7177 6.02573 19.5897C5.11846 20.4906 5.28674 20.4893 4.39841 19.6024C3.51678 18.7221 3.52386 18.9075 4.34092 18.0952C5.30674 17.135 5.28558 17.2082 4.81993 16.437C4.28179 15.5458 3.89276 14.5615 3.71156 13.6326C3.61914 13.1588 3.68944 13.1839 2.37782 13.1564L1.22936 13.1323V11.9999V10.8674L2.37782 10.8433C3.68944 10.8158 3.61918 10.8409 3.71152 10.3671C3.89256 9.43819 4.26705 8.48529 4.80055 7.596C5.26934 6.8146 5.29488 6.9171 4.40988 6.02583C3.50897 5.11857 3.51027 5.28685 4.39725 4.39852C5.27749 3.51689 5.0921 3.52397 5.90439 4.34103C6.84751 5.28964 6.81503 5.27812 7.44583 4.88841C8.41637 4.28893 9.34571 3.91546 10.3776 3.71037C10.8529 3.61592 10.8432 3.64382 10.8432 2.36997C10.8432 1.04924 10.6882 1.20108 12.0207 1.21655L13.1322 1.22947L13.1563 2.37166ZM13.2158 5.97885C16.943 6.73533 19.0883 10.6934 17.7036 14.2586C17.5085 14.7612 17.5548 14.7831 16.4282 13.6574C15.1934 12.4236 15.2465 12.5218 15.2169 11.4216C15.146 8.78093 12.9913 7.02977 10.5059 7.59263C9.12712 7.90489 9.13449 8.09283 10.5823 9.5444L11.6178 10.5826L11.604 11.0865L11.5901 11.5902L11.0864 11.6041L10.5825 11.6179L9.5443 10.5824C8.0922 9.13407 7.90937 9.12689 7.59093 10.506C7.02084 12.975 8.78507 15.1476 11.417 15.2175C12.5171 15.2468 12.4062 15.1875 13.6262 16.4002C14.7357 17.5033 14.7359 17.5035 14.4695 17.6181C10.3861 19.3752 5.8667 16.4237 5.8667 11.9999C5.8667 8.11355 9.41409 5.20724 13.2158 5.97885ZM11.7433 8.34144C12.7532 8.48129 13.6036 9.07923 14.068 9.97589C14.3423 10.5057 14.3686 10.6344 14.4026 11.6156C14.4507 13.0006 14.0248 12.4536 18.6037 17.0116C22.7422 21.1313 22.6465 21.0244 22.6486 21.5309C22.652 22.3528 21.8137 22.8903 21.0594 22.5497C20.8926 22.4744 19.9423 21.5539 16.9392 18.5587C12.3711 14.0027 12.951 14.4548 11.6142 14.4061C9.49678 14.3289 8.10935 12.9357 8.33006 11.1083C8.38924 10.6186 8.36712 10.6092 9.27174 11.5127C10.2376 12.4774 10.1455 12.4336 11.2092 12.4336C12.4383 12.4336 12.3853 12.4914 12.3853 11.1507V10.1506L11.5373 9.29791C10.5752 8.33041 10.586 8.37778 11.3096 8.29571C11.3408 8.29215 11.5359 8.31272 11.7433 8.34144ZM13.8875 13.8944C13.6992 14.095 13.7425 14.3346 14.0168 14.609C14.4011 14.9933 14.8429 14.9005 14.8429 14.4355C14.8429 13.9883 14.1618 13.6025 13.8875 13.8944ZM15.2789 15.2671C14.9585 15.5875 14.8562 15.4577 17.5541 18.1556C20.2453 20.8467 20.1486 20.77 20.4592 20.4593C20.7691 20.1494 20.8434 20.2433 18.1793 17.5776C15.504 14.9007 15.5826 14.9634 15.2789 15.2671ZM20.985 20.9851C20.783 21.187 20.8198 21.4119 21.1007 21.6929C21.3798 21.9719 21.6344 22.0152 21.8221 21.8154C22.2191 21.3927 21.3948 20.5752 20.985 20.9851Z" fill="white"/>
</svg>
