<svg width="30" height="30" viewBox="0 0 30 30" fill="none" xmlns="http://www.w3.org/2000/svg">
<path fill-rule="evenodd" clip-rule="evenodd" d="M14.4708 0.12964C14.1829 0.381191 14.1513 0.463285 14.1211 1.04011L14.0918 1.59878L13.4473 1.72678C13.0928 1.79716 12.6487 1.90748 12.4605 1.97195L12.1182 2.08917L11.9193 1.89038C11.2621 1.23363 10.3884 1.61681 10.3154 2.5938L10.2832 3.02441L9.84375 3.37369C7.90348 4.91602 6.89121 6.95999 6.71754 9.68659L6.65039 10.7406L6.14162 10.7699C5.05682 10.8323 4.69318 11.816 5.52674 12.4333L5.69221 12.5558H15H24.3078L24.4733 12.4333C25.3068 11.816 24.9432 10.8323 23.8584 10.7699L23.3496 10.7406L23.2825 9.68659C23.109 6.96274 22.0946 4.91444 20.1562 3.37369L19.7168 3.02441L19.6846 2.5938C19.6124 1.62841 18.709 1.22391 18.094 1.88171L17.9206 2.06727L17.5297 1.95789C17.3146 1.8977 16.8618 1.79254 16.5234 1.72409L15.9082 1.59966L15.8789 1.04058C15.8487 0.463285 15.8171 0.38125 15.5292 0.12964C15.4087 0.0243002 15.3094 0 15 0C14.6906 0 14.5913 0.0243002 14.4708 0.12964ZM15.7823 1.7095C15.9551 1.83581 15.903 7.99594 15.727 8.23314C15.3121 8.79252 14.6879 8.79252 14.273 8.23314C14.097 7.99594 14.0449 1.83581 14.2177 1.7095C14.358 1.60703 15.642 1.60703 15.7823 1.7095ZM12.0703 4.61417C12.0703 7.2787 12.078 7.23332 11.5825 7.48259C11.2509 7.6493 10.9931 7.62137 10.7164 7.38873C10.3814 7.10702 10.3711 7.03424 10.3711 4.95672V3.06294L10.8355 2.78691C11.4036 2.44923 11.8988 2.22619 11.997 2.26384C12.054 2.28568 12.0703 2.80934 12.0703 4.61417ZM19.1748 2.79089L19.6289 3.06393V4.95718C19.6289 7.03418 19.6185 7.10702 19.2836 7.38873C18.8911 7.7188 18.2845 7.59771 18.0391 7.1404C17.9004 6.88188 17.8665 2.31127 18.0029 2.26355C18.1049 2.22789 18.6355 2.46668 19.1748 2.79089ZM7.89088 14.322C7.78822 14.4245 7.85004 18.2529 7.96365 18.8337C9.14719 24.8825 17.0146 26.7015 20.7176 21.7825C21.8919 20.2225 22.1623 19.1673 22.1363 16.2447L22.1191 14.3124L15.0247 14.2975C11.1227 14.2893 7.9125 14.3003 7.89088 14.322ZM9.25781 24.4443C9.25781 24.6709 9.11754 24.952 8.91627 25.129C8.71342 25.3072 8.71688 25.3351 9.02584 26.0204C11.5246 31.5635 19.1156 31.2446 21.1856 25.5096C21.2635 25.2937 21.2612 25.2849 21.0837 25.129C20.8825 24.952 20.7422 24.6709 20.7422 24.4443C20.7422 24.2386 20.6857 24.2548 20.2486 24.5854C17.2069 26.8861 12.7931 26.8861 9.75141 24.5854C9.3143 24.2548 9.25781 24.2386 9.25781 24.4443ZM5.21484 26.8663C3.04055 27.8824 2.65248 28.077 2.02436 28.4661C1.56311 28.7519 0 29.8972 0 29.9494C0 29.9639 2.23588 29.9758 4.96863 29.9758H9.93721L9.31723 29.3456C8.59641 28.6131 7.9834 27.736 7.55203 26.8201C7.18506 26.041 7.18072 26.0331 7.11498 26.017C7.08504 26.0098 6.22998 26.3919 5.21484 26.8663ZM22.8124 26.0646C22.7805 26.1063 22.6947 26.2854 22.6217 26.4625C22.2152 27.4496 21.5014 28.51 20.6808 29.3461L20.0628 29.9758H25.0314C27.7641 29.9758 30 29.9625 30 29.9463C30 29.8862 28.3655 28.6992 27.8873 28.4121C27.2313 28.0181 23.9558 26.4328 22.9342 26.0149C22.8991 26.0005 22.8442 26.0229 22.8124 26.0646Z" fill="white"/>
</svg>
