<svg width="36" height="28" viewBox="0 0 36 28" fill="none" xmlns="http://www.w3.org/2000/svg">
<path fill-rule="evenodd" clip-rule="evenodd" d="M3.19778 0.292306C3.05481 0.450275 3.04895 0.647071 3.04895 5.31184V10.1669H3.55676H4.06457L4.08473 5.30426C4.1045 0.525821 4.10208 0.438791 3.94801 0.284728C3.74317 0.0798842 3.38676 0.083478 3.19778 0.292306ZM29.0106 0.325978C28.2559 0.718947 28.088 1.15449 28.088 2.71957V3.88176L27.8918 3.95637L27.6954 4.03098L27.716 6.90363L27.7364 9.77629L28.5372 9.79856L29.338 9.82082V6.92551V4.0302L29.1427 3.95598L28.9474 3.88176V2.78215C28.9474 1.51402 29.0118 1.31145 29.4932 1.0659C29.9633 0.826056 30.0736 0.550978 29.8068 0.284103C29.6064 0.0837121 29.4612 0.0912905 29.0106 0.325978ZM10.7792 7.19348C10.6621 7.37231 10.6753 7.48738 10.9922 9.04535L11.3302 10.7066L12.0223 11.0004C12.403 11.1619 13.3007 11.6469 14.0171 12.0782C15.609 13.0364 15.5099 13.0299 15.5099 12.1765C15.5099 11.1174 15.2682 10.9091 14.0396 10.9091C12.8767 10.9091 12.7187 10.7329 11.999 8.63301C11.7286 7.84387 11.4519 7.15426 11.3843 7.10051C11.1866 6.94356 10.9157 6.9852 10.7792 7.19348ZM18.3804 8.22285C16.9934 9.51652 16.8776 9.69301 17.2153 9.99856C17.444 10.2056 17.5915 10.1546 18.0909 9.69551C18.6386 9.19199 18.5797 9.17832 19.3288 9.98285C20.0063 10.7105 20.0128 10.5908 19.2557 11.3406C18.4664 12.1224 18.4019 11.8985 20.0691 14.1622L21.453 16.0411L25.4932 16.142C27.7153 16.1975 29.6036 16.2288 29.6896 16.2117C29.8398 16.1818 29.8473 16.1022 29.8849 14.1324L29.9239 12.0843L30.1404 11.8678L30.357 11.6513L32.66 11.6284C35.2211 11.603 35.0975 11.6351 34.8089 11.0697L34.655 10.7678L33.93 10.7219C33.5314 10.6967 31.8341 10.6388 30.1583 10.5932C25.4064 10.464 25.0064 10.3909 22.8791 9.2627C21.8054 8.69324 21.9055 8.68809 21.2521 9.3466C20.5781 10.0257 20.5663 10.0253 19.8914 9.29293C19.2229 8.56738 19.2252 8.60035 19.8073 8.09613C20.3325 7.64106 20.4461 7.39074 20.2336 7.15598C19.94 6.83145 19.7629 6.9334 18.3804 8.22285ZM0.718247 10.9612C0.638403 11.041 0.656294 12.1438 0.738247 12.1944C0.777857 12.2189 0.997622 12.2743 1.22653 12.3173C2.11997 12.4855 2.94543 13.067 3.44918 13.8832C3.78411 14.4258 3.80364 14.4322 4.02622 14.072C4.30762 13.6167 5.38817 13.1436 6.02918 13.195C6.44067 13.2281 6.53926 13.2109 6.65168 13.0866C6.98723 12.7159 8.52692 12.6625 9.00708 13.005C9.23661 13.1688 9.29895 13.179 9.63208 13.1076C10.2739 12.9701 11.4472 13.4385 11.8013 13.9736C11.9558 14.2071 12.0458 14.2685 12.2336 14.2685C12.7725 14.2685 13.8835 15.2997 13.9837 15.8929C14.0272 16.1498 14.0904 16.2511 14.263 16.3404C14.5275 16.4771 14.8222 16.8489 14.9916 17.2596L15.1137 17.5554L15.8782 17.5331L16.6427 17.5107V15.9926V14.4746L14.8068 13.3481C11.9459 11.5928 10.9074 11.1607 9.13528 10.9884C8.26793 10.904 0.799497 10.8799 0.718247 10.9612ZM30.62 12.4229C30.5972 12.4821 30.5896 12.7018 30.6029 12.9112L30.6271 13.2919H32.8128H34.9985L35.0626 12.9089C35.0979 12.6983 35.1087 12.4786 35.0864 12.4207C35.0261 12.2633 30.6804 12.2656 30.62 12.4229ZM7.13098 13.5716C7.05575 13.6154 6.94059 13.755 6.87504 13.8818C6.74207 14.1389 6.50606 14.1812 6.25668 13.9925C5.7727 13.6265 4.49426 14.2328 4.49426 14.8283C4.49426 15.1175 4.23231 15.2995 3.9634 15.1972C3.37598 14.9739 2.49442 15.8598 2.58473 16.5827C2.64137 17.036 2.60684 17.0754 2.04731 17.1957C1.56208 17.2999 1.23465 18.4799 1.56043 18.95C1.78176 19.2693 1.74668 19.581 1.48934 19.581C1.22567 19.581 1.05676 19.9713 1.05676 20.5805V21.1683L1.41645 21.4986C1.78965 21.8412 1.82489 22.0212 1.56153 22.2397C1.1477 22.5832 1.85215 23.956 2.44223 23.956C2.78333 23.956 2.85473 24.0784 2.80325 24.5745L2.75801 25.0107L3.23973 25.4694L3.72137 25.9281L4.11497 25.8759C4.57161 25.8154 4.72864 25.9028 4.72864 26.2175C4.72864 26.7976 6.06043 27.2889 6.53973 26.8857C6.81809 26.6515 6.87801 26.6457 7.04223 26.8377C7.53215 27.4104 7.50043 27.3935 8.07934 27.3935C8.75075 27.3935 8.98379 27.3101 9.13606 27.0157C9.29692 26.7046 9.46473 26.6593 9.76622 26.8457C10.3186 27.1871 11.5255 26.6786 11.5255 26.1044C11.5255 25.7209 11.7241 25.5905 12.2189 25.6491L12.6308 25.6979L13.0622 25.2371C13.4911 24.779 13.4934 24.7739 13.4534 24.3725C13.4093 23.93 13.5354 23.7216 13.8472 23.7216C14.3909 23.7216 14.9064 22.2587 14.4943 21.8857C14.2498 21.6644 14.2975 21.4302 14.631 21.2146L14.9239 21.0254L14.9464 20.3091L14.9687 19.5929L14.6534 19.3395C14.3158 19.0682 14.2705 18.9189 14.4527 18.6779C14.8214 18.1904 14.2554 16.9247 13.6686 16.9247C13.3113 16.9247 13.2182 16.7732 13.2836 16.2975L13.3383 15.9L12.8632 15.4249L12.388 14.9497L11.9613 14.9999C11.4969 15.0545 11.2911 14.9122 11.2911 14.5366C11.2911 14.0488 9.87317 13.5804 9.53332 13.956C9.33043 14.1802 9.05551 14.1549 8.89606 13.8974C8.82286 13.7793 8.70989 13.6386 8.64496 13.5849C8.50121 13.466 7.32997 13.4557 7.13098 13.5716ZM30.6204 14.1404C30.5975 14.2003 30.5896 14.4206 30.6029 14.63L30.6271 15.0107L32.5891 15.0315C34.8015 15.055 34.7148 15.0782 34.7475 14.4566L34.7677 14.0732L32.715 14.0523C31.0179 14.0351 30.655 14.0504 30.6204 14.1404ZM9.14582 15.7931C12.4957 16.6447 13.8861 20.6719 11.7564 23.3552C8.95848 26.8804 3.31582 24.938 3.28895 20.4404C3.27075 17.3797 6.21067 15.047 9.14582 15.7931ZM17.437 15.7268C17.4083 15.7554 17.3849 16.2761 17.3849 16.8838C17.3849 18.3364 17.4288 18.2806 16.2452 18.331C15.1337 18.3782 14.9994 18.5039 15.4053 19.1172C15.5837 19.3868 15.6299 19.5588 15.6639 20.0796L15.7052 20.7138H17.4229H19.1407L20.0106 18.6044C20.951 16.324 20.9258 16.4543 20.5275 15.9286L20.3351 15.6747H18.9121C18.1294 15.6747 17.4656 15.6982 17.437 15.7268ZM30.6205 15.859C30.5975 15.9189 30.5896 16.1393 30.6029 16.3487L30.6271 16.7294L32.44 16.7504C34.4904 16.7741 34.3898 16.8052 34.4332 16.1338L34.4552 15.7919L32.5587 15.771C30.9945 15.7537 30.655 15.7692 30.6205 15.859ZM6.86207 16.5274C3.93981 17.3635 2.98809 21.1396 5.15715 23.2919C7.72254 25.8376 12.0724 24.0439 12.0724 20.4404C12.0724 17.7089 9.49575 15.7739 6.86207 16.5274ZM21.4593 16.9052C21.2783 17.2506 19.963 20.528 19.963 20.6337C19.963 20.8571 25.9887 20.8079 26.2943 20.5819C26.4421 20.4727 26.5255 20.3412 26.5255 20.2179C26.5255 19.96 27.3638 19.1122 27.6188 19.1122C27.7279 19.1122 27.9109 18.9928 28.0805 18.811C28.4269 18.4396 29.1751 18.1335 29.4845 18.2366C29.6847 18.3033 30.4318 18.0071 30.4318 17.861C30.4318 17.7657 30.0429 17.1012 29.941 17.0222C29.8881 16.9812 28.1282 16.9079 25.9786 16.857C21.1764 16.7433 21.5462 16.7394 21.4593 16.9052ZM31.1349 17.6157C31.1349 18.0043 31.5128 18.2512 32.1821 18.3001C34.1676 18.4452 34.0701 18.4672 34.116 17.8622L34.1427 17.5107L32.6388 17.4894C31.2096 17.4693 31.1349 17.4756 31.1349 17.6157ZM8.89567 18.4736C10.3029 19.0961 10.5883 20.9736 9.43418 22.0163C8.1002 23.2214 5.89879 22.2431 5.90098 20.446C5.90286 18.8872 7.48098 17.8478 8.89567 18.4736ZM30.2299 18.8544C30.0952 19.2872 29.8879 19.3719 29.6075 19.1086C29.2336 18.7573 28.4639 19.0921 28.6315 19.5331C28.7856 19.9382 28.3553 20.2546 28.088 19.9325C27.756 19.5325 27.0554 20.205 27.3095 20.6799C27.4495 20.9414 27.2751 21.1435 26.9094 21.1435C26.3879 21.1435 26.178 21.8321 26.6036 22.1468C26.9712 22.4185 26.8781 22.7841 26.4413 22.7841C26.0282 22.7841 25.8843 23.574 26.2632 23.7619C26.7332 23.9948 26.8038 24.2446 26.4688 24.4887L26.2559 24.6438L26.4136 25.0225L26.5714 25.4013H26.9489C27.4359 25.4013 27.5672 25.5638 27.3654 25.9169C27.1036 26.3749 27.6977 27.2104 27.9708 26.7685C28.135 26.5029 28.5568 26.7603 28.5568 27.1261C28.5568 27.399 28.6239 27.4726 29.0146 27.6278C29.2724 27.7302 29.2817 27.7266 29.5319 27.4285C29.8434 27.0575 30.1974 27.116 30.1974 27.5385C30.1974 27.9814 31.1118 28.1401 31.2114 27.7145C31.2943 27.3601 31.5479 27.2786 31.8297 27.5157C32.2627 27.88 32.8885 27.6 32.8052 27.0793C32.7254 26.5804 33.054 26.3507 33.3614 26.6904C33.6968 27.0609 34.3524 26.5276 34.1727 26.0305C34.0422 25.6698 34.1456 25.4794 34.4719 25.4794C34.7665 25.4794 34.9021 25.3659 35.03 25.0118C35.1393 24.7097 35.06 24.5029 34.8346 24.5029C34.3918 24.5029 34.6116 23.8289 35.0689 23.7846C35.4937 23.7432 35.4564 22.7841 35.0299 22.7841C34.7386 22.7841 34.6736 22.4205 34.919 22.1643C35.2858 21.7814 34.9836 21.1511 34.4814 21.2515C34.0347 21.3408 33.7812 20.9275 34.1036 20.6357C34.4481 20.3239 33.9045 19.7147 33.4337 19.885C33.0744 20.0149 32.8536 19.8485 32.8536 19.4477C32.8536 18.9925 32.0911 18.771 31.9003 19.1708C31.7015 19.5874 31.2546 19.4751 31.2004 18.995C31.1672 18.7007 30.3161 18.5774 30.2299 18.8544ZM7.51418 19.07C6.39239 19.4699 6.26262 21.0941 7.30567 21.6804C7.76692 21.9396 8.49137 21.8964 8.89903 21.5856C10.2087 20.5866 9.06872 18.5157 7.51418 19.07ZM31.8496 20.8446C33.5664 21.6415 33.9631 23.8746 32.6255 25.2122C30.9438 26.8939 28.1546 25.8237 28.028 23.4482C27.9194 21.4102 30.0059 19.9887 31.8496 20.8446ZM29.8458 21.4859C28.6109 22.0697 28.3021 23.7675 29.2572 24.7225C30.5274 25.9927 32.6893 25.1532 32.7256 23.3756C32.7569 21.8444 31.2204 20.8361 29.8458 21.4859ZM15.3747 21.5443C15.3174 21.6016 15.3014 21.8143 15.3294 22.1498C15.3611 22.5296 15.3389 22.7472 15.2459 22.9694C15.0112 23.53 14.7412 23.491 18.6935 23.4685L22.2677 23.4482L22.9551 22.5289C23.3332 22.0234 23.6212 21.5752 23.595 21.5329C23.5239 21.4177 15.4901 21.4289 15.3747 21.5443Z" fill="white"/>
</svg>
