<svg width="30" height="30" viewBox="0 0 30 30" fill="none" xmlns="http://www.w3.org/2000/svg">
<path fill-rule="evenodd" clip-rule="evenodd" d="M23.2822 0.148041C20.7258 0.80934 18.9883 3.29045 19.3044 5.828C19.3363 6.08363 19.3789 6.44668 19.3991 6.63476L19.4359 6.97668L13.3332 13.0923C6.43791 20.0023 7.10338 19.4157 6.31089 19.283C1.1541 18.4195 -2.08445 24.6003 1.54809 28.3728C5.21629 32.1822 11.6784 28.78 10.6818 23.5641C10.6276 23.2804 10.6153 23.0703 10.648 22.9882C10.6763 22.9171 13.4742 20.0827 16.8655 16.6896L23.0316 10.5202L23.2857 10.5526C23.4255 10.5704 23.7503 10.6165 24.0075 10.6551C26.9619 11.0982 29.8146 8.72736 29.9255 5.73668L29.9526 5.00496L28.4659 6.48303C27.2047 7.73691 26.9534 7.9611 26.8086 7.9611C26.4447 7.9611 23.2872 6.85258 23.1689 6.68329C23.0375 6.49521 21.9908 3.36819 21.9908 3.1636C21.9908 3.05384 22.3461 2.66305 23.4945 1.50992L24.9983 0L24.4152 0.00286834C23.9951 0.00497569 23.6784 0.0455422 23.2822 0.148041ZM0.950377 0.905517C0.197633 1.6668 0.173666 1.69858 0.256031 1.82748C0.302972 1.90095 0.705912 2.60234 1.15141 3.38616C2.08578 5.03001 1.94156 4.89784 3.10935 5.18057L4.01542 5.39991L7.87413 9.25613C9.99645 11.3771 11.7725 13.1124 11.8209 13.1124C11.935 13.1124 13.1638 11.8793 13.1638 11.7649C13.1638 11.717 11.4791 9.99206 9.42007 7.93166C5.16274 3.67165 5.53096 4.11273 5.24242 2.92688C4.97101 1.81139 5.18537 2.03289 3.3731 0.995548C1.5412 -0.053035 1.88562 -0.0402738 0.950377 0.905517ZM20.8927 9.115C21.0465 9.26673 21.1724 9.41816 21.1724 9.45153C21.1724 9.54718 9.63741 21.0735 9.54165 21.0735C9.44415 21.0735 8.89653 20.5538 8.89653 20.4612C8.89653 20.3655 20.4315 8.83917 20.5272 8.83917C20.5744 8.83917 20.7389 8.96333 20.8927 9.115ZM17.5039 17.4591C16.2743 18.6907 15.2683 19.7254 15.2683 19.7583C15.2683 19.7912 15.4514 20 15.6751 20.2224L16.082 20.6267L16.3991 20.4661C17.8267 19.7428 19.3347 21.2266 18.5978 22.6296L18.4198 22.9683L21.476 26.0307C23.1569 27.7151 24.572 29.0932 24.6208 29.0932C24.7172 29.0932 29.1809 24.6519 29.1809 24.556C29.1809 24.475 23.0873 18.3808 23.0063 18.3808C22.9703 18.3808 22.8214 18.4476 22.6755 18.5293C21.3624 19.2642 19.8077 17.7505 20.4888 16.4003C20.6971 15.9874 20.701 16.0025 20.2793 15.5839C19.7888 15.097 20.0144 14.9446 17.5039 17.4591ZM23.905 23.1367C25.3278 24.5612 26.4919 25.7523 26.4919 25.7835C26.4919 25.8769 25.9483 26.4004 25.8513 26.4004C25.7365 26.4004 20.6463 21.3077 20.6463 21.1929C20.6463 21.0952 21.1652 20.5467 21.2576 20.5467C21.2909 20.5467 22.4821 21.7122 23.905 23.1367ZM7.31032 23.4689C8.02524 24.6641 8.02641 24.4617 7.29786 25.6687L6.69723 26.6638L5.43369 26.6796L4.1701 26.6954L3.55204 25.6663C2.80502 24.4224 2.76802 24.68 3.96579 22.7857L4.1601 22.4784H5.43901H6.71786L7.31032 23.4689ZM27.6169 27.5861C25.216 29.9911 25.2553 29.8865 26.755 29.8807C28.8841 29.8724 30.4697 27.8011 29.8731 25.8072C29.7645 25.4442 29.7207 25.4788 27.6169 27.5861Z" fill="white"/>
</svg>
