<svg width="36" height="34" viewBox="0 0 36 34" fill="none" xmlns="http://www.w3.org/2000/svg">
<path fill-rule="evenodd" clip-rule="evenodd" d="M14.4415 0.594714C14.3791 0.670242 14.3593 1.31558 14.3739 2.79437L14.3946 4.88719H18.0776H21.7607L21.7814 2.84054C21.7947 1.51794 21.7732 0.739852 21.7204 0.640887C21.614 0.441089 14.6053 0.396629 14.4415 0.594714ZM15.9124 1.62322C16.6257 2.38566 15.8341 4.34284 15.1074 3.61326C14.6317 3.13549 14.9534 1.42225 15.5189 1.42225C15.6396 1.42225 15.802 1.50518 15.9124 1.62322ZM18.3937 1.62322C18.6672 1.9156 18.6799 3.34362 18.4115 3.61326C17.8681 4.15893 17.4185 3.71518 17.4185 2.63327C17.4185 1.51203 17.861 1.0538 18.3937 1.62322ZM20.8749 1.62322C21.5882 2.38566 20.7965 4.34284 20.0699 3.61326C19.5941 3.13549 19.9158 1.42225 20.4813 1.42225C20.602 1.42225 20.7645 1.50518 20.8749 1.62322ZM10.0568 6.26717C9.87742 6.52435 9.87742 10.102 10.0568 10.3592L10.1775 10.5323H12.9669H15.7564L16.5681 10.0527L17.3798 9.57319V7.92707C17.3798 5.84811 17.8755 6.09408 13.6856 6.09408H10.1775L10.0568 6.26717ZM18.6721 6.14601C18.6436 6.17451 18.6204 6.96203 18.6204 7.89592V9.59398L18.8724 9.72432C19.011 9.79603 19.3756 10.0076 19.6827 10.1945L20.2409 10.5342L23.1331 10.5138L26.0253 10.4934L26.046 8.47679C26.0636 6.76752 26.0485 6.43224 25.9473 6.27713L25.8279 6.09408H22.2758C20.3222 6.09408 18.7005 6.11744 18.6721 6.14601ZM11.6032 7.27231C12.067 7.72018 11.7286 9.44222 11.1767 9.44222C10.4652 9.44222 10.2919 7.38023 10.9802 7.10327C11.1823 7.0219 11.407 7.08295 11.6032 7.27231ZM14.0844 7.27231C14.5482 7.72018 14.2098 9.44222 13.6579 9.44222C12.9464 9.44222 12.7732 7.38023 13.4614 7.10327C13.6635 7.0219 13.8882 7.08295 14.0844 7.27231ZM16.5656 7.27231C17.0295 7.72018 16.691 9.44222 16.1392 9.44222C15.4276 9.44222 15.2544 7.38023 15.9426 7.10327C16.1447 7.0219 16.3695 7.08295 16.5656 7.27231ZM20.2875 7.27231C20.7513 7.72018 20.4128 9.44222 19.861 9.44222C19.1494 9.44222 18.9762 7.38023 19.6644 7.10327C19.8666 7.0219 20.0913 7.08295 20.2875 7.27231ZM22.7687 7.27231C23.2325 7.72018 22.8941 9.44222 22.3422 9.44222C21.6306 9.44222 21.4574 7.38023 22.1457 7.10327C22.3478 7.0219 22.5725 7.08295 22.7687 7.27231ZM25.2499 7.27231C25.7137 7.72018 25.3753 9.44222 24.8234 9.44222C24.1119 9.44222 23.9386 7.38023 24.6269 7.10327C24.829 7.0219 25.0537 7.08295 25.2499 7.27231ZM17.8254 10.6658C17.6005 10.7216 8.04729 16.6015 7.90074 16.7743C7.65316 17.0663 7.75148 17.3311 9.74979 21.7525C11.9654 26.6549 11.8414 26.4284 12.1798 26.1865C13.3749 25.3319 14.9138 25.578 16.2868 26.8432C17.532 27.9908 18.4614 27.9827 19.7501 26.813C21.0628 25.6218 22.524 25.3647 23.7056 26.1171C24.1275 26.3858 28.2351 18.2512 28.2351 17.1467C28.2351 16.789 28.1096 16.703 23.1501 13.6626C18.4806 10.7999 18.1149 10.5941 17.8254 10.6658ZM10.0654 11.7522C9.96985 11.8481 10.0054 13.9583 10.1025 13.9583C10.2618 13.9583 13.5768 11.8977 13.5786 11.7976C13.5806 11.6924 10.1688 11.6483 10.0654 11.7522ZM22.4225 11.7961C22.4254 11.8979 25.74 13.9583 25.9008 13.9583C25.9658 13.9583 25.9848 13.6508 25.9692 12.8488L25.9477 11.7392L24.1837 11.7183C22.7982 11.7018 22.4204 11.7186 22.4225 11.7961ZM16.3761 12.7782C16.8639 13.1749 16.6349 13.4822 15.2088 14.3448C14.0922 15.0201 13.9219 15.0613 13.6386 14.725C13.272 14.29 13.4203 14.1014 14.7969 13.2518C15.8386 12.6089 16.0791 12.5367 16.3761 12.7782ZM21.1717 13.2308C22.5968 14.1008 22.7605 14.324 22.3069 14.7794C21.8817 15.2065 19.2885 13.6995 19.4349 13.1103C19.597 12.4581 19.9454 12.4823 21.1717 13.2308ZM9.81764 16.9164C10.0244 16.9952 10.4787 17.8142 10.4788 18.1081C10.479 18.5061 9.7898 18.7853 9.52695 18.4937C9.07095 17.9876 8.94115 17.3593 9.23231 17.0669C9.48268 16.8155 9.52501 16.8046 9.81764 16.9164ZM11.0507 19.398C11.2521 19.6215 13.0376 23.6061 13.0376 23.832C13.0376 24.307 12.4434 24.558 12.1266 24.2169C11.9371 24.0129 10.0912 19.9671 10.0912 19.7559C10.0912 19.3435 10.7726 19.0894 11.0507 19.398ZM4.82209 27.12C4.25304 27.2394 3.73098 27.5451 3.0405 28.163C2.29838 28.8271 2.02809 28.9782 1.43794 29.0586C0.383813 29.2023 0.422039 30.3876 1.48082 30.3876C2.29807 30.3876 2.91093 30.0954 3.79882 29.2827C5.10456 28.0874 5.84498 28.0839 7.16204 29.2667C8.84663 30.7794 10.4873 30.7906 12.129 29.3008C13.4853 28.0697 14.1983 28.07 15.5576 29.3024C17.2067 30.7975 18.8219 30.7909 20.4695 29.2827C21.7753 28.0874 22.5157 28.0839 23.8327 29.2667C25.5173 30.7794 27.158 30.7906 28.7997 29.3008C30.146 28.0787 30.8836 28.0727 32.1921 29.2731C33.0886 30.0955 33.6985 30.3876 34.5193 30.3876C35.5781 30.3876 35.6163 29.2023 34.5622 29.0586C33.9721 28.9782 33.7018 28.8271 32.9597 28.163C31.2818 26.6614 29.7796 26.6544 28.0727 28.14C26.6155 29.4084 25.9953 29.3943 24.4954 28.0589C22.9281 26.6634 21.3331 26.696 19.7245 28.1562C18.3794 29.3773 17.6124 29.3727 16.26 28.1354C14.6587 26.6703 13.0504 26.6683 11.4322 28.1293C10.0848 29.3458 9.32357 29.3799 8.09808 28.2786C6.90709 27.2082 5.97392 26.8783 4.82209 27.12ZM4.82209 30.2346C4.25304 30.3539 3.73098 30.6596 3.0405 31.2776C2.29838 31.9417 2.02809 32.0928 1.43794 32.1732C0.383813 32.3168 0.422039 33.5021 1.48082 33.5021C2.29807 33.5021 2.91093 33.21 3.79882 32.3972C5.10456 31.202 5.84498 31.1985 7.16204 32.3812C8.84663 33.8939 10.4873 33.9052 12.129 32.4153C13.4853 31.1843 14.1983 31.1846 15.5576 32.4169C17.2067 33.912 18.8219 33.9055 20.4695 32.3972C21.7753 31.202 22.5157 31.1985 23.8327 32.3812C25.5173 33.8939 27.158 33.9052 28.7997 32.4153C30.146 31.1932 30.8836 31.1872 32.1921 32.3877C33.0886 33.2101 33.6985 33.5021 34.5193 33.5021C35.5781 33.5021 35.6163 32.3168 34.5622 32.1732C33.9721 32.0928 33.7018 31.9417 32.9597 31.2776C31.2818 29.776 29.7796 29.7689 28.0727 31.2546C26.6155 32.5229 25.9953 32.5088 24.4954 31.1735C22.9281 29.778 21.3331 29.8105 19.7245 31.2707C18.3794 32.4918 17.6124 32.4873 16.26 31.2499C14.6587 29.7848 13.0504 29.7828 11.4322 31.2438C10.0848 32.4604 9.32357 32.4945 8.09808 31.3931C6.90709 30.3228 5.97392 29.9928 4.82209 30.2346Z" fill="white"/>
</svg>
