<svg width="30" height="30" viewBox="0 0 30 30" fill="none" xmlns="http://www.w3.org/2000/svg">
<path fill-rule="evenodd" clip-rule="evenodd" d="M4.71672 0.143827C-1.45185 1.73823 -1.61364 10.2402 4.48901 12.1091L5.01638 12.2706L8.23919 12.2721L11.462 12.2736L11.5004 11.1453C11.6908 5.55383 18.3263 5.59595 18.5155 11.1898L18.5522 12.2736L21.7457 12.2721L24.9392 12.2705L25.4666 12.109C31.6141 10.2257 31.4722 1.69751 25.2674 0.151795L24.6582 0L14.9545 0.00287068L5.25077 0.00574136L4.71672 0.143827ZM15.7075 3.60101C18.1873 3.8108 21.2618 6.57785 20.27 7.70725C19.8193 8.22058 19.2 8.08806 18.8097 7.39482C17.2359 4.5993 12.7783 4.5993 11.2045 7.39482C10.5836 8.49769 9.10454 7.92425 9.63091 6.78471C10.4875 4.93019 13.1465 3.37446 15.1536 3.55332C15.2503 3.56193 15.4995 3.58337 15.7075 3.60101ZM14.1984 8.96696C13.8184 9.15683 13.6176 9.35502 13.4075 9.74766L13.2785 9.9888L13.2492 15.6716L13.2199 21.3544L13.0921 21.5594C12.7478 22.1117 11.9926 22.1117 11.6484 21.5594C11.5231 21.3583 11.52 21.3025 11.4913 18.6301L11.462 15.9059L10.6709 15.9062C9.4618 15.9064 8.69946 16.3592 8.2052 17.3706L8.0048 17.7807L7.9881 20.7493C7.9673 24.4539 8.04822 24.9752 8.86547 26.4005C12.1371 32.1066 20.6099 30.7476 21.9229 24.3061C22.0349 23.7562 22.0424 23.5455 22.0265 21.3914L22.0094 19.0695L21.8227 18.6757C21.372 17.7242 21.0489 17.5226 18.6987 16.7266L16.7943 16.0817L16.765 13.0352C16.7361 10.0356 16.7337 9.98511 16.6066 9.74766C16.1299 8.85664 15.0925 8.5203 14.1984 8.96696Z" fill="white"/>
</svg>
