<svg width="30" height="30" viewBox="0 0 30 30" fill="none" xmlns="http://www.w3.org/2000/svg">
<path fill-rule="evenodd" clip-rule="evenodd" d="M13.2462 0.102608C12.1539 0.404363 11.921 0.777182 11.2901 3.23359C10.9805 4.43893 10.8374 4.89287 10.767 4.89287C10.7137 4.89287 9.99679 4.4978 9.17386 4.01496C6.58873 2.49821 6.21162 2.52717 4.35322 4.38557C2.5022 6.23659 2.47029 6.62423 3.96029 9.16088C4.45492 10.003 4.85979 10.7379 4.86006 10.7941C4.86039 10.8715 4.45821 10.9991 3.20124 11.3207C0.160565 12.0985 0 12.2805 0 14.9491C0 17.7527 0.152386 17.9318 3.20124 18.7116C4.45848 19.0333 4.86039 19.1609 4.85992 19.2383C4.85965 19.2944 4.45512 20.0278 3.96096 20.868C2.46962 23.404 2.50173 23.7953 4.35322 25.6468C6.20471 27.4983 6.59603 27.5304 9.13195 26.039C9.97219 25.5449 10.705 25.1403 10.7605 25.1401C10.8361 25.1396 10.968 25.5542 11.288 26.7988C11.8724 29.0706 12.0464 29.397 12.896 29.8143L13.2743 30H14.9168C17.7203 30 17.9035 29.8441 18.6798 26.7988C19.0016 25.5367 19.1274 25.1396 19.2054 25.1401C19.2618 25.1403 19.9955 25.5449 20.8357 26.039C23.3716 27.5304 23.7629 27.4983 25.6144 25.6468C27.4659 23.7953 27.498 23.404 26.0067 20.868C25.5125 20.0278 25.108 19.295 25.1077 19.2395C25.1073 19.1639 25.5218 19.032 26.7664 18.712C29.0383 18.1276 29.3647 17.9536 29.7819 17.104L29.9677 16.7257V15.0832C29.9677 12.2802 29.8137 12.0991 26.7664 11.3186C25.5735 11.0131 25.1071 10.8668 25.1071 10.798C25.1071 10.7455 25.5022 10.0291 25.985 9.2062C27.5018 6.62107 27.4728 6.24397 25.6144 4.38557C23.7634 2.53455 23.3758 2.50263 20.8391 3.99264C19.997 4.48727 19.2626 4.89214 19.2072 4.8924C19.1316 4.89274 19.0003 4.47862 18.6814 3.23359C18.1085 0.996744 17.8806 0.580817 17.0069 0.177293C16.5928 -0.0139104 13.8642 -0.06808 13.2462 0.102608ZM16.4923 10.2783C20.0426 11.441 21.1069 15.8662 18.4704 18.5027C15.4004 21.5727 10.2192 19.5509 10.0392 15.2126C9.89703 11.7855 13.2548 9.218 16.4923 10.2783ZM14.1458 12.2238C12.0495 12.9168 11.3966 15.5272 12.9347 17.0653C14.3444 18.4751 16.7614 18.0498 17.618 16.2413C18.6585 14.0445 16.4317 11.4679 14.1458 12.2238Z" fill="white"/>
</svg>
