<svg width="28" height="30" viewBox="0 0 28 30" fill="none" xmlns="http://www.w3.org/2000/svg">
<path fill-rule="evenodd" clip-rule="evenodd" d="M14 0C12.7063 0 10.5444 0.496875 8.51001 1.05C6.42876 1.6125 4.33064 2.27812 3.09689 2.68125C2.58106 2.8516 2.12374 3.164 1.77748 3.58256C1.43122 4.00113 1.21005 4.50889 1.13939 5.0475C0.021885 13.4419 2.61501 19.6631 5.76126 23.7787C7.09548 25.5393 8.68631 27.0897 10.4806 28.3781C11.2044 28.89 11.8756 29.2819 12.4456 29.55C12.9706 29.7975 13.535 30 14 30C14.465 30 15.0275 29.7975 15.5544 29.55C16.2415 29.216 16.8989 28.824 17.5194 28.3781C19.3137 27.0897 20.9046 25.5393 22.2388 23.7787C25.385 19.6631 27.9781 13.4419 26.8606 5.0475C26.7901 4.50863 26.569 4.00058 26.2227 3.58169C25.8765 3.1628 25.4191 2.85006 24.9031 2.67937C23.1122 2.09215 21.3073 1.54824 19.49 1.04813C17.4556 0.49875 15.2938 0 14 0ZM18.0238 9.64875C18.1998 9.47271 18.4386 9.37382 18.6875 9.37382C18.9365 9.37382 19.1752 9.47271 19.3513 9.64875C19.5273 9.82479 19.6262 10.0635 19.6262 10.3125C19.6262 10.5615 19.5273 10.8002 19.3513 10.9762L13.7263 16.6012C13.6392 16.6886 13.5357 16.7578 13.4218 16.8051C13.3079 16.8523 13.1858 16.8767 13.0625 16.8767C12.9392 16.8767 12.8171 16.8523 12.7032 16.8051C12.5893 16.7578 12.4858 16.6886 12.3988 16.6012L9.58626 13.7887C9.49909 13.7016 9.42995 13.5981 9.38278 13.4842C9.33561 13.3703 9.31133 13.2483 9.31133 13.125C9.31133 13.0017 9.33561 12.8797 9.38278 12.7658C9.42995 12.6519 9.49909 12.5484 9.58626 12.4613C9.67342 12.3741 9.77691 12.3049 9.89079 12.2578C10.0047 12.2106 10.1267 12.1863 10.25 12.1863C10.3733 12.1863 10.4953 12.2106 10.6092 12.2578C10.7231 12.3049 10.8266 12.3741 10.9138 12.4613L13.0625 14.6119L18.0238 9.64875Z" fill="white"/>
</svg>
