<svg width="72" height="72" viewBox="0 0 72 72" fill="none" xmlns="http://www.w3.org/2000/svg">
<g clip-path="url(#clip0_527_63)">
<path opacity="0.5" d="M53.75 1H18.25C8.72309 1 1 8.72309 1 18.25V53.75C1 63.2769 8.72309 71 18.25 71H53.75C63.2769 71 71 63.2769 71 53.75V18.25C71 8.72309 63.2769 1 53.75 1Z" stroke="#699B2C" stroke-width="2"/>
<mask id="mask0_527_63" style="mask-type:alpha" maskUnits="userSpaceOnUse" x="26" y="-16" width="63" height="104">
<path d="M26.3591 87.098C33.6327 88.471 41.1155 88.274 48.3071 86.523C55.4988 84.771 62.2335 81.5037 68.0611 76.9399C73.8887 72.3762 78.6749 66.6209 82.0995 60.0588C85.5239 53.4967 87.5089 46.2792 87.9199 38.8887C88.3309 31.4981 87.1599 24.105 84.4839 17.2035C81.8083 10.3021 77.6901 4.0514 72.4047 -1.1307C67.1194 -6.31273 60.7886 -10.3067 53.8357 -12.8455C46.8827 -15.3844 39.4679 -16.4096 32.087 -15.8526L35.9999 36L26.3591 87.098Z" fill="#D9D9D9"/>
</mask>
<g mask="url(#mask0_527_63)">
<path d="M53.75 1H18.25C8.72309 1 1 8.72309 1 18.25V53.75C1 63.2769 8.72309 71 18.25 71H53.75C63.2769 71 71 63.2769 71 53.75V18.25C71 8.72309 63.2769 1 53.75 1Z" stroke="#699B2C" stroke-width="2"/>
</g>
</g>
<defs>
<clipPath id="clip0_527_63">
<rect width="72" height="72" fill="white"/>
</clipPath>
</defs>
</svg>
