<svg width="1344" height="383" viewBox="0 0 1344 383" fill="none" xmlns="http://www.w3.org/2000/svg">
<mask id="mask0_90_1112" style="mask-type:alpha" maskUnits="userSpaceOnUse" x="10" y="6" width="1324" height="377">
<rect x="10" y="6" width="1324" height="377" rx="15" fill="#699B2C"/>
</mask>
<g mask="url(#mask0_90_1112)">
<path fill-rule="evenodd" clip-rule="evenodd" d="M-350.016 150.47L-181.013 159.719C-12.0104 168.968 325.995 187.465 662.275 172.408C998.554 157.35 1333.11 108.737 1500.39 84.4304L1667.66 60.1238L1678.02 261.457L1509.88 268.985C1341.74 276.514 1005.46 291.572 669.176 306.629C332.897 321.687 -3.38321 336.745 -171.523 344.274L-339.663 351.802L-350.016 150.47Z" stroke="white" stroke-opacity="0.25" stroke-width="2"/>
<path fill-rule="evenodd" clip-rule="evenodd" d="M-350.016 150.47L-181.013 159.719C-12.0104 168.968 322.5 84.4304 662.274 172.408C1002.05 260.385 1333.11 108.737 1500.39 84.4304L1667.66 60.1238L1678.02 261.457L1509.88 268.985C1341.74 276.514 1005.46 291.572 669.176 306.629C332.896 321.687 -3.38323 336.745 -171.523 344.274L-339.663 351.802L-350.016 150.47Z" stroke="white" stroke-opacity="0.25" stroke-width="2"/>
<path fill-rule="evenodd" clip-rule="evenodd" d="M1719.49 71.2145L1549.57 64.6718C1379.65 58.1292 1053.09 183.175 704.876 76.9233C356.659 -29.3282 39.9329 185.647 -125.074 224.069L-290.081 262.492L-319.57 -7.29749L-152.106 -23.2372C15.3585 -39.177 350.287 -71.0565 685.216 -102.936C1020.15 -134.816 1355.07 -166.695 1522.54 -182.635L1690 -198.575L1719.49 71.2145Z" stroke="white" stroke-opacity="0.25" stroke-width="2"/>
</g>
</svg>
