<svg width="39" height="40" viewBox="0 0 39 40" fill="none" xmlns="http://www.w3.org/2000/svg">
<path d="M19.5001 0.897705C8.93577 0.897705 0.369873 9.45107 0.369873 19.9999C0.369873 30.5488 8.93577 39.1022 19.5001 39.1022C30.0644 39.1022 38.6303 30.5488 38.6303 19.9999C38.6303 9.45107 30.0644 0.897705 19.5001 0.897705ZM25.6534 20.2941L16.3274 27.0695C16.2763 27.1061 16.216 27.1281 16.1532 27.1328C16.0904 27.1375 16.0276 27.1248 15.9715 27.0962C15.9155 27.0675 15.8684 27.024 15.8355 26.9704C15.8026 26.9168 15.7852 26.8552 15.7851 26.7923V13.2502C15.7849 13.1872 15.8021 13.1254 15.835 13.0716C15.8678 13.0178 15.9149 12.9741 15.971 12.9454C16.0272 12.9167 16.0902 12.9041 16.1531 12.909C16.216 12.9139 16.2763 12.936 16.3274 12.973L25.6534 19.7441C25.6974 19.7752 25.7334 19.8164 25.7582 19.8643C25.783 19.9121 25.7959 19.9652 25.7959 20.0191C25.7959 20.073 25.783 20.1261 25.7582 20.174C25.7334 20.2218 25.6974 20.263 25.6534 20.2941Z" fill="white"/>
</svg>
