<svg width="196" height="91" viewBox="0 0 196 91" fill="none" xmlns="http://www.w3.org/2000/svg">
<path fill-rule="evenodd" clip-rule="evenodd" d="M3.19551 54.923H15.4859C16.5947 54.9983 17.6934 54.6749 18.578 54.013C18.9465 53.6896 19.235 53.2875 19.4211 52.8374C19.6072 52.3874 19.6862 51.9014 19.6517 51.4167C19.689 50.9218 19.6156 50.425 19.4368 49.9611C19.258 49.4971 18.9781 49.0773 18.6168 48.7312C17.716 48.0735 16.6045 47.7572 15.4859 47.8403H3.19551V54.923ZM3.19551 67.3006H16.6374C17.2712 67.3337 17.9052 67.2382 18.4997 67.0193C19.0941 66.7997 19.6361 66.4625 20.0916 66.0278C20.9075 65.0523 21.3536 63.8286 21.3536 62.5658C21.3536 61.3028 20.9075 60.079 20.0916 59.1039C19.6367 58.6681 19.0949 58.3299 18.5003 58.1109C17.9057 57.8918 17.2713 57.7965 16.6374 57.8312H3.19551V67.3006ZM0 70.2087V44.9321H15.1949C17.722 44.9321 19.6345 45.4645 20.9325 46.5294C22.2263 47.5921 22.8731 49.1576 22.8731 51.2321C22.8899 52.1675 22.6839 53.0937 22.2716 53.9367C21.8792 54.7132 21.2829 55.3723 20.5444 55.8458C21.8043 56.5282 22.868 57.5134 23.6364 58.7094C24.3471 59.8841 24.71 61.2308 24.6844 62.5976C24.7349 63.6347 24.5517 64.6698 24.148 65.6295C23.7443 66.5885 23.13 67.4482 22.3492 68.1469C20.7838 69.517 18.6685 70.1998 16.0034 70.196L0 70.2087Z" fill="black"/>
<path fill-rule="evenodd" clip-rule="evenodd" d="M29.3999 70.2085V50.6528H48.0361V53.5165H32.4984V58.391H42.6994V61.2037H32.4984V67.3958H48.8964V70.2085H29.3999Z" fill="black"/>
<path fill-rule="evenodd" clip-rule="evenodd" d="M130.317 65.4295C129.232 67.1413 127.691 68.5279 125.86 69.4386C123.91 70.3816 121.759 70.8551 119.586 70.8195C116.097 70.8195 113.221 69.8477 110.957 67.9049C109.892 66.9739 109.041 65.8323 108.458 64.5545C107.875 63.2765 107.573 61.8917 107.573 60.491C107.573 59.0903 107.875 57.7055 108.458 56.4278C109.041 55.15 109.892 54.0081 110.957 53.0774C113.221 51.1174 116.097 50.1374 119.586 50.1374C121.62 50.1114 123.635 50.5218 125.492 51.3401C127.2 52.0915 128.68 53.2669 129.787 54.751L127.316 56.4438C126.483 55.3313 125.367 54.4536 124.081 53.8983C122.671 53.2816 121.142 52.9733 119.599 52.9947C117.294 52.9088 115.04 53.6737 113.279 55.1392C112.493 55.8023 111.862 56.6248 111.43 57.5502C110.997 58.4756 110.774 59.4821 110.774 60.5006C110.774 61.5191 110.997 62.5256 111.43 63.451C111.862 64.3763 112.493 65.1991 113.279 65.8622C115.04 67.3214 117.291 68.0837 119.592 68.0004C121.213 68.0303 122.818 67.6816 124.276 66.9822C125.704 66.2186 126.925 65.1272 127.833 63.8004L130.317 65.4295Z" fill="black"/>
<path fill-rule="evenodd" clip-rule="evenodd" d="M140.266 70.2085V53.3765H131.876V50.6528H151.754V53.3765H143.365V70.2085H140.266Z" fill="black"/>
<path fill-rule="evenodd" clip-rule="evenodd" d="M154.465 70.2085V50.6528H173.101V53.5165H157.563V58.391H167.764V61.2037H157.563V67.3958H173.961V70.2085H154.465Z" fill="black"/>
<path fill-rule="evenodd" clip-rule="evenodd" d="M183.994 70.2085V53.3765H175.604V50.6528H195.482V53.3765H187.093V70.2085H183.994Z" fill="black"/>
<path fill-rule="evenodd" clip-rule="evenodd" d="M80.6124 62.0946L78.0249 63.9722C79.1162 66.0887 80.7993 67.8552 82.8764 69.0631C84.9955 70.2671 87.409 70.8812 89.8561 70.8385C91.6214 70.8907 93.3782 70.5852 95.0187 69.9419C96.6585 69.2979 98.1469 68.3293 99.3908 67.0967C100.637 65.8462 101.613 64.3597 102.259 62.7281C102.905 61.0961 103.208 59.3522 103.149 57.6019C103.214 55.8427 102.913 54.0889 102.266 52.4478C101.619 50.8066 100.638 49.3124 99.3844 48.0564C98.1424 46.8243 96.6565 45.8563 95.0187 45.2126C93.3808 44.5689 91.6259 44.2633 89.8625 44.3146C87.6108 44.2884 85.3882 44.8132 83.3939 45.8419C81.4423 46.8654 79.7986 48.3751 78.6265 50.2201L81.3045 52.0974C82.0898 50.6044 83.302 49.3702 84.7911 48.5464C86.3436 47.6867 88.1005 47.2475 89.8819 47.2737C91.2158 47.2399 92.5412 47.4831 93.7728 47.9876C95.0044 48.492 96.1145 49.2462 97.0298 50.201C98.3694 51.5844 99.2686 53.323 99.6172 55.2028H89.6038V58.111H99.8631C99.8262 60.6549 98.8145 63.0914 97.0298 64.9331C96.1093 65.8844 94.9954 66.6353 93.7605 67.1362C92.5257 67.6376 91.1977 67.8775 89.8625 67.8412C87.9659 67.8712 86.1017 67.3602 84.4935 66.3712C82.844 65.3015 81.5063 63.8277 80.6124 62.0946Z" fill="black"/>
<path fill-rule="evenodd" clip-rule="evenodd" d="M55.0611 53.5423V58.1369H64.1172C69.221 58.1369 71.7438 60.326 71.7438 64.3671C71.7819 65.1734 71.6357 65.9784 71.3155 66.7217C70.9953 67.465 70.5096 68.1287 69.8937 68.6626C68.6518 69.7145 66.9421 70.2382 64.7641 70.2344H51.9626V50.6787H70.5988V53.5423H55.0611ZM65.1134 60.9942H55.0611V67.4217H65.1134C67.2222 67.4217 68.5483 66.3081 68.5483 64.1826C68.5483 62.0569 67.1963 60.9942 65.1134 60.9942Z" fill="black"/>
<path fill-rule="evenodd" clip-rule="evenodd" d="M5.73122 84.5269C5.78159 85.4522 5.52259 86.3685 4.99379 87.136C4.7733 87.4383 4.4816 87.6839 4.14363 87.8513C3.80567 88.0186 3.43151 88.1026 3.0532 88.0969C2.62463 88.1198 2.19679 88.0396 1.80678 87.8634C1.41677 87.6871 1.07636 87.4198 0.815049 87.0851V90.6678H0V80.9442H0.730957L0.769769 81.9305C1.0156 81.5761 1.35002 81.2897 1.74086 81.0988C2.1317 80.9085 2.56582 80.8201 3.00145 80.8424C3.38874 80.8271 3.77382 80.9066 4.12251 81.0727C4.47119 81.2395 4.77269 81.4883 5.00026 81.7969C5.52887 82.5777 5.78538 83.5068 5.73122 84.4442V84.5587V84.5269ZM4.94205 84.3933C4.9829 83.6449 4.78866 82.9029 4.38574 82.2678C4.21445 82.0158 3.98084 81.8115 3.70694 81.6734C3.43305 81.5354 3.12791 81.4685 2.82033 81.4787C2.38062 81.4673 1.94778 81.5875 1.57835 81.8224C1.22004 82.0744 0.943711 82.4237 0.782706 82.8278V86.2005C0.951603 86.5811 1.23344 86.9025 1.59129 87.1233C1.96761 87.3396 2.39739 87.4497 2.83327 87.4415C3.13849 87.4523 3.44149 87.3861 3.7133 87.2493C3.98511 87.1118 4.21664 86.9088 4.38574 86.6587C4.79898 85.9734 4.99284 85.1817 4.94205 84.3869V84.3933ZM11.967 87.9633C11.8726 87.6445 11.8225 87.3148 11.8182 86.9833C11.5403 87.339 11.1784 87.6228 10.7638 87.8105C10.3375 88.0015 9.87394 88.0988 9.40541 88.0969C8.79768 88.1262 8.20192 87.9232 7.74297 87.5305C7.52504 87.3301 7.35563 87.0838 7.24721 86.8108C7.1388 86.5378 7.0941 86.2438 7.11642 85.9511C7.1388 85.659 7.22761 85.3745 7.37633 85.1206C7.52511 84.8661 7.72997 84.6478 7.97584 84.4824C8.69625 84.0439 9.5366 83.8345 10.3822 83.8842H11.8117V83.0824C11.8242 82.8622 11.7885 82.642 11.707 82.4365C11.6255 82.2315 11.5002 82.0457 11.3395 81.8924C10.9558 81.5799 10.4648 81.4253 9.96818 81.4596C9.47954 81.4399 8.99938 81.5888 8.60977 81.8796C8.44553 81.9916 8.31098 82.1405 8.21757 82.3143C8.12417 82.4886 8.07449 82.6821 8.07287 82.8787H7.27723C7.28441 82.5924 7.36022 82.3117 7.49846 82.0591C7.63675 81.8071 7.83353 81.5907 8.07287 81.4278C8.6251 81.0002 9.31116 80.7755 10.0135 80.7915C10.6928 80.7514 11.3631 80.9601 11.8958 81.3769C12.1282 81.5831 12.3118 81.837 12.4336 82.1208C12.5554 82.404 12.6126 82.7107 12.6009 83.0187V86.3405C12.574 86.8585 12.6487 87.3772 12.8209 87.8678V87.9442L11.967 87.9633ZM9.49597 87.4224C9.99354 87.4306 10.4832 87.2983 10.9061 87.0405C11.3074 86.8064 11.6241 86.4551 11.8117 86.0351V84.4824H10.4081C9.76507 84.4512 9.12623 84.5994 8.56449 84.9087C8.36221 85.0233 8.19526 85.19 8.08141 85.3905C7.9675 85.5909 7.9109 85.8181 7.91762 86.0478C7.91491 86.233 7.95346 86.4169 8.03057 86.5862C8.10767 86.7554 8.22146 86.9063 8.36396 87.0278C8.68248 87.2989 9.09446 87.4402 9.51538 87.4224H9.49597ZM18.8561 82.7896C18.8662 82.5987 18.8276 82.4085 18.7441 82.2366C18.6605 82.0642 18.5344 81.9153 18.3774 81.8033C17.9932 81.5583 17.5408 81.438 17.0837 81.4596C16.6212 81.4482 16.1675 81.5844 15.79 81.8478C15.6237 81.9535 15.4868 82.0985 15.392 82.2697C15.2971 82.4409 15.2471 82.6325 15.2466 82.8278H14.4251C14.4233 82.544 14.4918 82.264 14.6248 82.012C14.7578 81.7606 14.9513 81.5443 15.1884 81.3833C15.7278 80.9894 16.3868 80.7876 17.0578 80.8105C17.7353 80.7698 18.4071 80.9537 18.9661 81.3324C19.1927 81.5055 19.3733 81.7307 19.4927 81.9878C19.612 82.2449 19.6666 82.5262 19.6517 82.8087C19.6518 83.1396 19.5404 83.4623 19.3348 83.7251C19.0935 84.0184 18.7729 84.2393 18.4098 84.3614C18.8078 84.4251 19.1679 84.6313 19.4209 84.9399C19.6741 85.2485 19.8023 85.6386 19.7811 86.0351C19.7908 86.3246 19.7281 86.6129 19.5984 86.8738C19.4687 87.1341 19.276 87.36 19.0372 87.5305C18.4595 87.9238 17.7659 88.1179 17.0643 88.0842C16.3576 88.1115 15.6621 87.9028 15.0914 87.4924C14.8411 87.3148 14.6389 87.0806 14.5024 86.8083C14.366 86.5365 14.2994 86.2362 14.3086 85.9333H15.0978C15.0965 86.1426 15.1477 86.3495 15.247 86.5346C15.3463 86.7198 15.4906 86.8783 15.6671 86.996C16.072 87.2862 16.5634 87.4357 17.0643 87.4224C17.5633 87.4504 18.0581 87.3186 18.4745 87.0469C18.6373 86.9324 18.7692 86.7796 18.8582 86.6034C18.9474 86.4271 18.991 86.2317 18.9855 86.0351C19.0026 85.8404 18.9688 85.6444 18.8872 85.4662C18.8057 85.288 18.6792 85.1334 18.5197 85.0169C18.0829 84.7815 17.5871 84.6733 17.0902 84.7051H16.0034V84.0242H17.2195C18.3127 83.9924 18.8561 83.5787 18.8561 82.7514V82.7896ZM27.2653 84.5269C27.3157 85.4522 27.0567 86.3685 26.5279 87.136C26.3048 87.4434 26.0079 87.6915 25.6638 87.8595C25.3196 88.0269 24.9388 88.1084 24.555 88.0969C24.1265 88.1192 23.6989 88.039 23.3089 87.8627C22.919 87.6865 22.5785 87.4192 22.3168 87.0851V90.6678H21.5018V80.9442H22.2327L22.2716 81.9305C22.5174 81.5761 22.8518 81.2897 23.2426 81.0988C23.6335 80.9085 24.0676 80.8201 24.5032 80.8424C24.8914 80.8271 25.2774 80.9066 25.6271 81.0727C25.9769 81.2395 26.2795 81.4876 26.5085 81.7969C27.0349 82.579 27.2891 83.5075 27.233 84.4442V84.5587L27.2653 84.5269ZM26.4762 84.3933C26.5171 83.6449 26.3228 82.9029 25.9199 82.2678C25.7467 82.012 25.509 81.8045 25.2301 81.6664C24.9512 81.5277 24.6406 81.4634 24.3286 81.4787C23.8886 81.466 23.4554 81.5856 23.0866 81.8224C22.7246 82.0725 22.4456 82.4218 22.2845 82.8278V86.2005C22.4554 86.5798 22.7368 86.9005 23.0931 87.1233C23.4714 87.3403 23.9035 87.4504 24.3415 87.4415C24.643 87.4504 24.9419 87.3835 25.2101 87.248C25.4783 87.1125 25.7069 86.9114 25.8746 86.6651C26.2878 85.9797 26.4817 85.1881 26.4309 84.3933H26.4762ZM33.5076 87.9633C33.4072 87.6457 33.3549 87.3155 33.3523 86.9833C33.0759 87.3403 32.7136 87.6247 32.298 87.8105C31.8716 88.0015 31.4081 88.0988 30.9395 88.0969C30.332 88.1249 29.7367 87.9219 29.2771 87.5305C29.07 87.3536 28.9047 87.1347 28.7929 86.8885C28.6811 86.6422 28.6256 86.3743 28.6302 86.1051C28.6247 85.7844 28.7012 85.4681 28.8527 85.1843C29.0042 84.9011 29.2257 84.6593 29.497 84.4824C30.2194 84.0426 31.0621 83.8339 31.9098 83.8842H33.3329V83.0824C33.3454 82.8622 33.3096 82.642 33.2281 82.4365C33.1467 82.2315 33.0214 82.0457 32.8607 81.8924C32.4769 81.5799 31.986 81.4253 31.4894 81.4596C31.001 81.4418 30.5213 81.5901 30.131 81.8796C29.9693 81.9942 29.8368 82.1437 29.7436 82.3168C29.6505 82.4905 29.5993 82.6827 29.5941 82.8787H28.7855C28.7909 82.5924 28.8653 82.3117 29.0024 82.0597C29.1396 81.8071 29.3358 81.5907 29.5747 81.4278C30.1271 81.0008 30.813 80.7762 31.5152 80.7915C32.1925 80.7526 32.8604 80.9607 33.3912 81.3769C33.6235 81.5831 33.8071 81.837 33.9289 82.1208C34.0508 82.404 34.1079 82.7107 34.0962 83.0187V86.3405C34.0726 86.8585 34.1472 87.3765 34.3162 87.8678V87.9442L33.5076 87.9633ZM31.0301 87.4224C31.5277 87.4306 32.0173 87.2983 32.4403 87.0405C32.8415 86.8064 33.1582 86.4551 33.3459 86.0351V84.4824H31.9098C31.2669 84.4512 30.628 84.5994 30.0663 84.9087C29.864 85.0233 29.697 85.19 29.5832 85.3905C29.4693 85.5909 29.4127 85.8181 29.4194 86.0478C29.4167 86.233 29.4552 86.4169 29.5323 86.5862C29.6095 86.7554 29.7232 86.9063 29.8657 87.0278C30.1849 87.2976 30.5964 87.4389 31.0172 87.4224H31.0301ZM39.09 81.4087C39.4985 81.3915 39.906 81.4609 40.2852 81.6111C40.6644 81.7613 41.0068 81.9897 41.2894 82.2805C41.8696 82.9131 42.1719 83.7455 42.1303 84.5969V84.7687C42.1381 85.3624 42.0076 85.9498 41.7486 86.4869C41.5036 86.9775 41.1195 87.3886 40.6425 87.6705C40.1415 87.9607 39.5681 88.1084 38.9865 88.0969C38.559 88.1217 38.1311 88.0549 37.7323 87.9009C37.3335 87.7469 36.9736 87.5102 36.6772 87.206C36.0713 86.5232 35.7582 85.6354 35.804 84.7305V84.0942C35.7417 82.8762 36.0335 81.6671 36.6449 80.6069C36.9019 80.1888 37.2498 79.8325 37.6636 79.5626C38.0775 79.2935 38.547 79.1172 39.0383 79.0478C39.5216 78.9963 39.9899 78.8512 40.4161 78.6215C40.5417 78.5457 40.6448 78.4388 40.7152 78.3109C40.7856 78.1836 40.8208 78.0405 40.8172 77.896H41.464C41.478 78.2123 41.3994 78.5254 41.2376 78.7996C41.0678 79.0516 40.8274 79.2508 40.5455 79.3724C40.0966 79.5563 39.6244 79.6804 39.1418 79.7415C38.4662 79.8248 37.8449 80.1481 37.3952 80.6515C36.9192 81.2197 36.6204 81.9114 36.5349 82.6433C36.8173 82.2767 37.177 81.9751 37.5893 81.7587C38.0343 81.5303 38.53 81.4145 39.0318 81.4215L39.09 81.4087ZM36.6255 84.5905V84.756C36.5975 85.4484 36.8275 86.1274 37.2723 86.6651C37.4877 86.9005 37.751 87.0889 38.0452 87.2181C38.3395 87.3466 38.6579 87.4135 38.9801 87.4135C39.3022 87.4135 39.6207 87.3466 39.9149 87.2181C40.2091 87.0889 40.4724 86.9005 40.6878 86.6651C41.1407 86.1045 41.3706 85.4006 41.3347 84.686V84.5205C41.3631 83.8625 41.1313 83.2192 40.6878 82.726C40.4701 82.4944 40.2043 82.3124 39.9084 82.1915C39.6126 82.0705 39.2937 82.0139 38.9736 82.026C38.6478 82.0107 38.3228 82.0686 38.0228 82.194C37.7226 82.3194 37.4551 82.5103 37.24 82.7514C36.7931 83.2599 36.5616 83.9185 36.5931 84.5905H36.6255ZM43.2041 84.336C43.1951 83.7047 43.3322 83.0805 43.6051 82.5096C43.8475 81.9872 44.2384 81.5449 44.7307 81.2369C45.2237 80.9302 45.7972 80.773 46.3802 80.7851C46.8129 80.7705 47.2434 80.8506 47.6407 81.0199C48.0378 81.1898 48.3917 81.4444 48.6766 81.7651C49.2912 82.4963 49.6071 83.426 49.5628 84.3742V84.5396C49.5723 85.1722 49.4351 85.799 49.1617 86.3724C48.9233 86.8948 48.5343 87.3377 48.0426 87.6451C47.5457 87.941 46.974 88.0931 46.3931 88.0842C45.9595 88.0982 45.528 88.018 45.1297 87.8487C44.7315 87.6795 44.3765 87.4249 44.0903 87.1042C43.4756 86.373 43.1597 85.4426 43.2041 84.4951V84.336ZM43.9933 84.5524C43.9551 85.2969 44.1841 86.0313 44.6401 86.6269C44.8487 86.8795 45.1121 87.0832 45.4109 87.2232C45.7096 87.3625 46.0364 87.4357 46.3673 87.4357C46.6981 87.4357 47.0249 87.3625 47.3236 87.2232C47.6224 87.0832 47.8858 86.8795 48.0944 86.6269C48.5566 86.0096 48.7853 85.2536 48.7412 84.4887V84.3424C48.7468 83.8345 48.6432 83.3312 48.4372 82.866C48.2601 82.4479 47.9663 82.0884 47.5898 81.8287C47.2224 81.5818 46.7863 81.4526 46.3414 81.4596C46.0106 81.4552 45.6837 81.5284 45.3869 81.6722C45.0902 81.816 44.8321 82.026 44.6337 82.2869C44.1759 82.9055 43.9475 83.6602 43.9868 84.4251V84.5651L43.9933 84.5524ZM56.1479 81.5933H53.5604V87.9569H52.7389V81.5933H50.242V80.9569H56.1155V81.5933H56.1479ZM59.3822 84.7178H58.2502V87.9505H57.4545V80.9505H58.2502V84.0624H59.3304L61.9179 80.9505H62.9076L59.9902 84.3487L63.2245 87.9696H62.1896L59.311 84.7369L59.3822 84.7178ZM68.9234 87.9505C68.8296 87.6317 68.7772 87.3021 68.7682 86.9705C68.492 87.3275 68.1297 87.612 67.7138 87.7978C67.2875 87.9887 66.8237 88.0861 66.3554 88.0842C65.7493 88.1141 65.1554 87.9105 64.6994 87.5178C64.4916 87.3415 64.3258 87.1226 64.214 86.8757C64.1021 86.6295 64.047 86.3622 64.0525 86.0924C64.047 85.7716 64.1235 85.4554 64.275 85.1715C64.4265 84.8884 64.648 84.6465 64.9193 84.4696C65.6419 84.0299 66.4847 83.8212 67.3321 83.8715H68.7552V83.0696C68.7675 82.8501 68.732 82.6305 68.6517 82.4256C68.5715 82.2201 68.448 82.0343 68.2895 81.8796C67.904 81.5659 67.4104 81.4106 66.9117 81.4469C66.4233 81.4291 65.9433 81.5774 65.5533 81.8669C65.3915 81.9814 65.2589 82.131 65.1658 82.3041C65.0726 82.4778 65.0215 82.67 65.0164 82.866H64.1948C64.2003 82.5796 64.2747 82.299 64.4118 82.047C64.549 81.7944 64.7453 81.578 64.984 81.4151C65.5364 80.9881 66.2221 80.7635 66.9246 80.7787C67.6019 80.7386 68.2701 80.9474 68.8005 81.3642C69.034 81.5691 69.2184 81.823 69.34 82.1068C69.4623 82.3906 69.5185 82.698 69.5056 83.006V86.3278C69.4817 86.8458 69.5567 87.3638 69.7255 87.8551V87.9314L68.9234 87.9505ZM66.4524 87.4096C66.9498 87.416 67.4389 87.2836 67.8626 87.0278C68.2604 86.7911 68.5741 86.4404 68.7617 86.0224V84.4696H67.358C66.715 84.4397 66.0766 84.5874 65.5145 84.896C65.312 85.0105 65.1451 85.1773 65.0312 85.3777C64.9174 85.5782 64.8611 85.8054 64.8676 86.0351C64.865 86.2203 64.9032 86.4042 64.9808 86.5735C65.0578 86.7427 65.1716 86.8935 65.3139 87.0151C65.6348 87.2862 66.0488 87.4268 66.4718 87.4096H66.4524ZM77.5461 87.4096C78.0468 87.4262 78.5365 87.2633 78.924 86.9515C79.1057 86.807 79.2532 86.6263 79.3574 86.4207C79.4609 86.2158 79.5184 85.9905 79.5255 85.7615H80.2824C80.2649 86.1808 80.1258 86.5875 79.8813 86.9324C79.6258 87.2887 79.2804 87.5745 78.8787 87.7596C78.4647 87.9614 78.008 88.0638 77.5461 88.0587C77.1263 88.0765 76.7078 87.9989 76.3229 87.8322C75.938 87.6655 75.5978 87.4141 75.3274 87.0978C74.7517 86.359 74.4625 85.4433 74.5123 84.5142V84.2787C74.5001 83.6468 74.6255 83.0194 74.8811 82.4396C75.0997 81.9337 75.4665 81.5035 75.9354 81.2051C76.4174 80.9079 76.9775 80.7571 77.5461 80.7724C78.2596 80.7431 78.9557 80.99 79.4867 81.4596C79.7397 81.6919 79.9415 81.9725 80.0806 82.2844C80.2196 82.5962 80.2927 82.9328 80.2953 83.2733H79.5385C79.5197 82.7725 79.3017 82.299 78.9317 81.9547C78.5611 81.6104 78.0682 81.4234 77.5591 81.4342C77.2408 81.4176 76.9226 81.4787 76.6341 81.6117C76.3449 81.7447 76.0939 81.9465 75.9031 82.1978C75.4736 82.8253 75.2666 83.5743 75.3145 84.3296V84.5524C75.2679 85.2969 75.4755 86.0357 75.9031 86.6524C76.0946 86.9025 76.3462 87.1023 76.6347 87.2346C76.9239 87.3664 77.2408 87.4268 77.5591 87.4096H77.5461ZM86.3564 87.9251C86.2562 87.6075 86.2038 87.2773 86.2012 86.9451C85.925 87.3021 85.5627 87.5865 85.1468 87.7724C84.7205 87.9633 84.2567 88.0606 83.7884 88.0587C83.181 88.0867 82.5859 87.8837 82.1259 87.4924C81.9189 87.3155 81.7533 87.0965 81.6414 86.8503C81.5302 86.604 81.4745 86.3361 81.4791 86.0669C81.4733 85.7462 81.5502 85.4299 81.7016 85.1461C81.853 84.8629 82.0748 84.6211 82.3459 84.4442C83.0684 84.0045 83.9113 83.7957 84.7587 83.846H86.1818V83.0442C86.1941 82.824 86.1585 82.6038 86.077 82.3983C85.9955 82.1934 85.87 82.0075 85.7096 81.8542C85.326 81.5417 84.835 81.3871 84.3382 81.4215C83.8498 81.4036 83.3699 81.5519 82.9798 81.8415C82.8181 81.956 82.6855 82.1055 82.5923 82.2786C82.4992 82.4524 82.4481 82.6445 82.4429 82.8405H81.6537C81.6589 82.5542 81.7333 82.2735 81.8704 82.0215C82.0082 81.7689 82.2042 81.5525 82.4429 81.3896C82.9953 80.9626 83.681 80.738 84.3835 80.7533C85.0608 80.7145 85.729 80.9225 86.2594 81.3387C86.4916 81.5449 86.6753 81.7988 86.7969 82.0826C86.9192 82.3658 86.9761 82.6725 86.9645 82.9805V86.3024C86.9406 86.8204 87.0156 87.3384 87.1844 87.8296V87.906L86.3564 87.9251ZM83.8789 87.3842C84.3764 87.3924 84.8661 87.2601 85.2891 87.0024C85.6902 86.7682 86.0071 86.4169 86.1947 85.9969V84.4442H84.7393C84.0963 84.413 83.4572 84.5613 82.8957 84.8705C82.6932 84.9851 82.5263 85.1518 82.4125 85.3523C82.2987 85.5527 82.2424 85.7799 82.2488 86.0096C82.2463 86.1948 82.2844 86.3787 82.362 86.548C82.439 86.7173 82.5529 86.8681 82.6952 86.9896C83.0141 87.2595 83.4261 87.4007 83.8466 87.3842H83.8789ZM93.7501 80.906H94.5393V87.906H93.7501V82.1405L89.9077 87.906H89.125V80.906H89.9077V86.6842L93.7501 80.906ZM93.7178 78.3605C93.7268 78.5877 93.6848 78.8143 93.5955 79.0243C93.5062 79.2343 93.371 79.4226 93.2003 79.576C92.8147 79.8967 92.3205 80.0622 91.816 80.0405C91.3147 80.0647 90.8217 79.9005 90.4381 79.5824C90.2654 79.4284 90.1296 79.2394 90.039 79.0281C89.9485 78.8175 89.9058 78.589 89.9142 78.3605H90.5611C90.5494 78.5139 90.5727 78.6685 90.6283 78.8124C90.684 78.9568 90.7719 79.0866 90.8845 79.1942C91.1387 79.3991 91.4621 79.5015 91.7901 79.4805C92.12 79.4977 92.4434 79.3908 92.6957 79.1815C92.8044 79.0739 92.8891 78.9454 92.9447 78.8041C93.0004 78.6628 93.0263 78.5114 93.0191 78.3605H93.7178ZM101.758 81.5424H99.1708V87.906H98.3234V81.5424H95.833V80.906H101.707V81.5424H101.758ZM102.34 84.2851C102.329 83.6545 102.465 83.0302 102.735 82.4587C102.978 81.9363 103.368 81.494 103.861 81.186C104.354 80.8799 104.927 80.7227 105.51 80.7342C105.943 80.7195 106.376 80.7997 106.773 80.969C107.172 81.1389 107.527 81.3928 107.813 81.7142C108.426 82.446 108.739 83.3757 108.693 84.3233V84.4887C108.702 85.1213 108.565 85.7481 108.292 86.3214C108.056 86.8452 107.666 87.2887 107.173 87.5942C106.676 87.8901 106.104 88.0422 105.523 88.0333C105.09 88.0473 104.658 87.9671 104.26 87.7978C103.861 87.6285 103.506 87.374 103.22 87.0533C102.608 86.3208 102.295 85.3911 102.34 84.4442V84.2851ZM103.123 84.5014C103.089 85.2454 103.317 85.9785 103.77 86.576C103.979 86.8286 104.242 87.0323 104.54 87.1723C104.839 87.3116 105.166 87.3848 105.497 87.3848C105.828 87.3848 106.155 87.3116 106.454 87.1723C106.752 87.0323 107.015 86.8286 107.224 86.576C107.686 85.9587 107.915 85.2027 107.871 84.4378V84.2914C107.877 83.7836 107.773 83.2803 107.567 82.8151C107.39 82.397 107.096 82.0374 106.72 81.7778C106.353 81.5296 105.916 81.4005 105.471 81.4087C105.139 81.4017 104.811 81.4724 104.512 81.6136C104.213 81.7555 103.952 81.9643 103.751 82.2233C103.293 82.8418 103.064 83.5965 103.104 84.3614V84.5014H103.123ZM110.4 87.8996V80.8996H112.988C113.712 80.8557 114.434 81.0218 115.064 81.3769C115.306 81.5296 115.501 81.7441 115.628 81.9974C115.756 82.2506 115.811 82.5332 115.789 82.8151C115.792 83.1555 115.678 83.4877 115.465 83.7569C115.223 84.0465 114.895 84.2558 114.527 84.3551C114.958 84.4232 115.351 84.6313 115.646 84.9469C115.924 85.2352 116.077 85.6183 116.073 86.016C116.087 86.2935 116.031 86.5703 115.908 86.8216C115.787 87.0724 115.603 87.29 115.375 87.4542C114.799 87.822 114.12 88.0002 113.434 87.9633L110.4 87.8996ZM111.183 84.6669V87.2505H113.467C113.946 87.2785 114.423 87.1608 114.831 86.9133C114.99 86.8051 115.118 86.6587 115.203 86.4882C115.287 86.3176 115.327 86.1286 115.317 85.9396C115.321 85.757 115.28 85.5763 115.195 85.414C115.11 85.2517 114.985 85.113 114.831 85.0105C114.423 84.7605 113.947 84.6402 113.467 84.6669H111.183ZM111.183 84.0305H113.175C114.411 84.0305 115.032 83.5978 115.032 82.7578C115.044 82.5701 115.003 82.3836 114.912 82.2182C114.822 82.0527 114.687 81.9153 114.521 81.8224C114.053 81.5977 113.533 81.4972 113.014 81.5296H111.183V84.0051V84.0305ZM120.957 87.2633L121.307 86.8115C121.929 85.8397 122.259 84.714 122.257 83.566L122.38 80.8933H126.585V87.2569H127.322V89.9678H126.54V87.906H121.158V89.9678H120.401V87.2569L120.957 87.2633ZM121.863 87.2633H125.796V81.6251H123.131L123.047 83.4451C123.071 84.8082 122.656 86.1445 121.863 87.2633ZM134.315 80.8996V87.8996H133.526V81.536H130.615L130.492 84.1642C130.466 84.9119 130.367 85.6558 130.194 86.3851C130.095 86.8165 129.871 87.2098 129.548 87.5178C129.226 87.7711 128.821 87.9003 128.409 87.8805H128.079V87.1933H128.325C128.533 87.1958 128.738 87.1366 128.91 87.0234C129.084 86.9095 129.218 86.7472 129.295 86.5569C129.554 85.8283 129.685 85.0627 129.683 84.2914L129.832 80.8933L134.315 80.8996ZM141.618 80.8996V87.8996H140.829V85.0678H138.617L136.883 87.8996H135.971L137.763 84.9724C137.308 84.8699 136.906 84.6103 136.631 84.2405C136.355 83.8721 136.212 83.4247 136.223 82.9678C136.214 82.6776 136.272 82.3894 136.393 82.1246C136.514 81.8599 136.695 81.6257 136.922 81.4405C137.459 81.039 138.124 80.8385 138.798 80.8742L141.618 80.8996ZM137.051 83.006C137.045 83.1912 137.078 83.3764 137.146 83.5488C137.216 83.7219 137.32 83.8791 137.452 84.0115C137.6 84.1489 137.773 84.2565 137.963 84.3271C138.153 84.3984 138.355 84.4315 138.558 84.4251H140.829V81.5615H138.817C138.353 81.5335 137.893 81.6715 137.523 81.9496C137.366 82.0763 137.241 82.2385 137.159 82.4218C137.076 82.6057 137.04 82.8055 137.051 83.006ZM149.885 81.3642C150.294 81.347 150.701 81.4164 151.08 81.5665C151.459 81.7167 151.802 81.9452 152.084 82.236C152.661 82.8698 152.963 83.7015 152.925 84.5524V84.7242C152.934 85.3185 152.801 85.9072 152.537 86.4424C152.294 86.9343 151.91 87.346 151.431 87.626C150.932 87.9162 150.361 88.0638 149.782 88.0524C149.36 88.0804 148.937 88.0193 148.54 87.8729C148.144 87.7272 147.785 87.4994 147.485 87.206C146.882 86.5219 146.569 85.6354 146.612 84.7305V84.0942C146.552 82.8762 146.845 81.6665 147.459 80.6069C147.715 80.1882 148.063 79.8312 148.477 79.5614C148.891 79.2922 149.361 79.1165 149.853 79.0478C150.336 78.9963 150.804 78.8512 151.23 78.6215C151.355 78.5445 151.458 78.4375 151.528 78.3103C151.598 78.183 151.634 78.0405 151.632 77.896H152.278C152.289 78.2116 152.211 78.5247 152.052 78.7996C151.879 79.0491 151.639 79.247 151.36 79.3724C150.909 79.5575 150.435 79.6816 149.95 79.7415C149.274 79.8248 148.653 80.1481 148.203 80.6515C147.731 81.2216 147.433 81.9127 147.343 82.6433C147.627 82.2761 147.989 81.9745 148.404 81.7587C148.848 81.5284 149.344 81.4125 149.846 81.4215L149.885 81.3642ZM147.42 84.546V84.7115C147.395 85.4032 147.625 86.0815 148.067 86.6205C148.283 86.856 148.547 87.0444 148.842 87.1735C149.137 87.3027 149.455 87.3695 149.778 87.3695C150.101 87.3695 150.42 87.3027 150.715 87.1735C151.009 87.0444 151.273 86.856 151.489 86.6205C151.942 86.0599 152.172 85.3561 152.136 84.6414V84.476C152.165 83.818 151.933 83.1746 151.489 82.6814C151.271 82.4504 151.005 82.2685 150.71 82.1475C150.414 82.0266 150.095 81.97 149.775 81.9815C149.455 81.9687 149.137 82.0254 148.842 82.1475C148.546 82.2697 148.282 82.4543 148.067 82.6878C147.623 83.1982 147.391 83.8549 147.42 84.5269V84.546ZM158.999 80.8869H159.776V87.8869H158.986V82.1215L155.144 87.8869H154.361V80.8869H155.144V86.6651L158.986 80.8869H158.999ZM166.057 82.7324C166.067 82.5414 166.028 82.3512 165.945 82.1794C165.861 82.0069 165.735 81.858 165.578 81.746C165.194 81.501 164.742 81.3807 164.284 81.4024C163.822 81.3909 163.368 81.5271 162.99 81.7905C162.824 81.8962 162.687 82.0413 162.593 82.2124C162.498 82.3836 162.448 82.5752 162.447 82.7705H161.587C161.585 82.4874 161.653 82.208 161.785 81.9566C161.917 81.7053 162.109 81.4889 162.344 81.326C162.886 80.9334 163.547 80.7316 164.22 80.7533C164.897 80.7125 165.569 80.8965 166.128 81.2751C166.354 81.4488 166.533 81.6741 166.652 81.9312C166.77 82.1883 166.823 82.4695 166.807 82.7514C166.81 83.083 166.698 83.4063 166.49 83.6678C166.253 83.9625 165.934 84.1833 165.571 84.3042C165.969 84.3691 166.328 84.5753 166.581 84.8839C166.834 85.1925 166.963 85.582 166.943 85.9778C166.953 86.2674 166.89 86.5556 166.76 86.8165C166.63 87.0768 166.438 87.3027 166.199 87.4733C165.621 87.8665 164.928 88.0606 164.226 88.0269C163.53 88.0473 162.848 87.8385 162.285 87.4351C162.037 87.2588 161.836 87.0265 161.699 86.7567C161.563 86.4875 161.496 86.1891 161.503 85.8887H162.292C162.291 86.0981 162.342 86.3049 162.441 86.4901C162.54 86.6753 162.685 86.8337 162.861 86.9515C163.266 87.2416 163.758 87.3912 164.258 87.3778C164.757 87.4058 165.252 87.2741 165.669 87.0024C165.832 86.8878 165.963 86.7351 166.052 86.5588C166.141 86.3825 166.185 86.1872 166.18 85.9905C166.197 85.7945 166.163 85.5985 166.08 85.4197C165.997 85.2415 165.869 85.0869 165.707 84.9724C165.273 84.7363 164.779 84.6281 164.284 84.6605H163.197V84.0242H164.414C165.507 83.9924 166.05 83.5787 166.05 82.7514L166.057 82.7324ZM174.181 87.906H173.36V84.686H169.524V87.906H168.728V80.906H169.524V84.0878H173.36V80.906H174.149V87.906H174.181ZM179.046 88.0396C178.467 88.0492 177.898 87.8977 177.405 87.6012C176.911 87.3046 176.513 86.8764 176.258 86.366C175.983 85.8155 175.843 85.2097 175.85 84.5969V84.3169C175.842 83.6856 175.979 83.0614 176.251 82.4905C176.494 81.9738 176.877 81.5335 177.357 81.2178C177.811 80.913 178.348 80.7514 178.897 80.7533C179.284 80.7348 179.671 80.8035 180.028 80.955C180.385 81.1058 180.701 81.3349 180.954 81.6251C181.491 82.3066 181.76 83.1562 181.711 84.0178V84.4505H176.594V84.6605C176.568 85.3885 176.817 86.1 177.293 86.6587C177.504 86.9126 177.77 87.1163 178.073 87.2544C178.376 87.3918 178.706 87.4605 179.039 87.4542C179.423 87.4612 179.803 87.3829 180.152 87.2251C180.499 87.052 180.801 86.8013 181.032 86.4933L181.523 86.8624C181.251 87.2703 180.877 87.6025 180.436 87.8252C179.995 88.0485 179.502 88.1548 179.007 88.1351L179.046 88.0396ZM178.858 81.4787C178.577 81.4736 178.299 81.5284 178.041 81.6378C177.784 81.7479 177.553 81.9102 177.364 82.1151C176.934 82.5962 176.673 83.2007 176.62 83.8396H180.889V83.7569C180.899 83.1568 180.693 82.5733 180.307 82.1087C180.13 81.9025 179.907 81.7377 179.656 81.6276C179.405 81.5175 179.132 81.4647 178.858 81.4724V81.4787ZM185.838 87.4542C186.338 87.4682 186.827 87.3059 187.216 86.996C187.395 86.8496 187.541 86.6683 187.645 86.4634C187.749 86.2585 187.807 86.0345 187.817 85.806H188.574C188.551 86.2254 188.41 86.6314 188.166 86.9769C187.914 87.3333 187.57 87.6184 187.17 87.8042C186.756 88.0046 186.3 88.1071 185.838 88.1033C185.418 88.1217 184.999 88.0447 184.614 87.878C184.229 87.7113 183.889 87.4593 183.619 87.1424C183.038 86.4061 182.747 85.4891 182.797 84.5587V84.3233C182.785 83.6914 182.911 83.0639 183.166 82.4842C183.387 81.9795 183.754 81.55 184.221 81.2496C184.702 80.9525 185.263 80.8016 185.831 80.8169C186.545 80.7876 187.241 81.0345 187.772 81.5042C188.024 81.7371 188.227 82.0177 188.366 82.3295C188.506 82.6407 188.581 82.9767 188.587 83.3178H187.83C187.795 82.9156 187.639 82.5332 187.381 82.2201C187.122 81.907 186.774 81.6773 186.381 81.5615C185.988 81.445 185.569 81.4482 185.178 81.5697C184.787 81.6913 184.442 81.9255 184.188 82.2424C183.759 82.8698 183.552 83.6188 183.6 84.3742V84.5969C183.553 85.3415 183.761 86.0803 184.188 86.6969C184.38 86.9476 184.633 87.1481 184.923 87.2805C185.213 87.4128 185.532 87.472 185.851 87.4542H185.838ZM194.642 87.9696C194.547 87.6508 194.497 87.3212 194.493 86.9896C194.21 87.3575 193.839 87.6502 193.413 87.8424C192.986 88.0333 192.522 88.1306 192.054 88.1287C191.449 88.1574 190.855 87.9544 190.398 87.5624C190.19 87.3861 190.024 87.1672 189.913 86.9203C189.801 86.674 189.745 86.4067 189.751 86.1369C189.745 85.8162 189.822 85.4999 189.974 85.2161C190.125 84.9329 190.347 84.6911 190.618 84.5142C191.341 84.0745 192.183 83.8657 193.031 83.916H194.46V83.1142C194.471 82.894 194.435 82.6744 194.354 82.4689C194.272 82.264 194.148 82.0782 193.988 81.9242C193.605 81.6117 193.114 81.4571 192.617 81.4915C192.127 81.4724 191.645 81.6213 191.252 81.9115C191.09 82.026 190.958 82.1755 190.865 82.3486C190.771 82.5224 190.72 82.7145 190.715 82.9105H189.926C189.931 82.6242 190.005 82.3435 190.143 82.0915C190.28 81.8389 190.476 81.6225 190.715 81.4596C191.268 81.0326 191.953 80.808 192.656 80.8233C193.333 80.7832 194.001 80.9919 194.532 81.4087C194.765 81.6136 194.949 81.8675 195.071 82.1514C195.193 82.4352 195.25 82.7425 195.237 83.0505V86.3724C195.213 86.8904 195.288 87.4084 195.457 87.8996V87.976L194.642 87.9696ZM192.171 87.4287C192.668 87.4351 193.157 87.3027 193.581 87.0469C193.979 86.8089 194.294 86.4583 194.486 86.0414V84.4887H193.076C192.433 84.4588 191.795 84.6065 191.233 84.9151C191.03 85.0296 190.863 85.1964 190.749 85.3968C190.636 85.5973 190.579 85.8245 190.586 86.0542C190.583 86.2387 190.62 86.4226 190.696 86.5919C190.772 86.7612 190.885 86.912 191.026 87.0342C191.344 87.2995 191.753 87.4383 192.171 87.4224V87.4287Z" fill="black"/>
<path fill-rule="evenodd" clip-rule="evenodd" d="M97.7412 11.4785L119.987 0.189366C120.265 0.0466529 120.581 -0.00832263 120.892 0.0319167C121.203 0.072156 121.494 0.205657 121.725 0.414261C121.956 0.622864 122.116 0.896445 122.184 1.19779C122.252 1.49913 122.222 1.81362 122.102 2.09845L119.075 9.56938L118.111 11.8603H133.694C133.971 11.8392 134.249 11.9022 134.49 12.0408C134.73 12.1793 134.921 12.3868 135.037 12.6355C135.155 12.8841 135.191 13.162 135.143 13.4318C135.095 13.7015 134.964 13.9504 134.768 14.1448C134.482 14.4248 134.097 14.5827 133.694 14.5839H118.111L119.075 16.8685L122.102 24.3648C122.222 24.6497 122.252 24.9642 122.184 25.2655C122.116 25.5668 121.956 25.8404 121.725 26.049C121.494 26.2576 121.203 26.3911 120.892 26.4314C120.581 26.4716 120.265 26.4166 119.987 26.2739L97.7412 14.9339L75.4955 26.2421C75.2174 26.3848 74.9017 26.4398 74.5906 26.3995C74.2794 26.3593 73.9883 26.2258 73.7574 26.0172C73.5265 25.8086 73.3661 25.535 73.2988 25.2337C73.2309 24.9323 73.26 24.6179 73.3803 24.333L76.4076 16.8367L77.3714 14.5521H61.7885C61.384 14.5498 60.9964 14.3922 60.7082 14.113C60.5151 13.917 60.387 13.6678 60.3409 13.3986C60.2947 13.1295 60.3327 12.8528 60.4497 12.6053C60.5668 12.3577 60.7574 12.151 60.9965 12.0123C61.2355 11.8736 61.5116 11.8095 61.7885 11.8285H77.3714L76.4076 9.56938L73.3803 2.07936C73.26 1.79453 73.2309 1.48004 73.2988 1.1787C73.3661 0.877355 73.5265 0.603774 73.7574 0.39517C73.9883 0.186566 74.2794 0.053065 74.5906 0.0128258C74.9017 -0.0274135 75.2174 0.027562 75.4955 0.170275L97.7412 11.4785ZM75.3856 1.35391C75.2834 1.3019 75.1643 1.29143 75.0544 1.32474C74.9444 1.35806 74.8519 1.43251 74.7969 1.53209C74.7439 1.63368 74.7329 1.75166 74.7665 1.86098C74.8008 1.97029 74.8765 2.06233 74.978 2.11754L95.5807 12.7067C95.6835 12.7581 95.8032 12.7677 95.9132 12.7331C96.0238 12.6986 96.1156 12.6228 96.1693 12.5221C96.1965 12.4724 96.2133 12.418 96.2185 12.3619C96.2243 12.3058 96.2185 12.2492 96.2017 12.1954C96.1849 12.1416 96.157 12.0915 96.1208 12.0482C96.084 12.0049 96.0387 11.9691 95.9882 11.943L75.3856 1.35391ZM120.097 1.35391L99.4942 11.943C99.4438 11.9691 99.3985 12.0049 99.3616 12.0482C99.3254 12.0915 99.2976 12.1416 99.2808 12.1954C99.2639 12.2492 99.2581 12.3058 99.2639 12.3619C99.2691 12.418 99.2859 12.4724 99.3131 12.5221C99.3668 12.6228 99.4586 12.6986 99.5693 12.7331C99.6792 12.7677 99.7989 12.7581 99.9017 12.7067L120.504 2.11754C120.606 2.06233 120.682 1.97029 120.716 1.86098C120.75 1.75166 120.739 1.63368 120.686 1.53209C120.631 1.43251 120.538 1.35806 120.428 1.32474C120.318 1.29143 120.199 1.3019 120.097 1.35391Z" fill="black"/>
</svg>
